<?xml version="1.0" encoding="UTF-8" standalone="no"?>
<!DOCTYPE svg PUBLIC "-//W3C//DTD SVG 1.1//EN"
 "http://www.w3.org/Graphics/SVG/1.1/DTD/svg11.dtd">
<!-- Generated by graphviz version 15.1.1 (20260805.0921)
 -->
<!-- Title: firmware/services/baseline_learner.c Pages: 1 -->
<svg width="767pt" height="208pt"
 viewBox="0.00 0.00 767.00 208.00" xmlns="http://www.w3.org/2000/svg" xmlns:xlink="http://www.w3.org/1999/xlink">
<g id="graph0" class="graph" transform="scale(1 1) rotate(0) translate(4 204)">
<title>firmware/services/baseline_learner.c</title>
<!-- Node1 -->
<g id="Node000001" class="node">
<title>Node1</title>
<g id="a_Node000001"><a xlink:title=" ">
<polygon fill="#999999" stroke="#666666" points="527,-200 394.75,-200 394.75,-168 527,-168 527,-200"/>
<text xml:space="preserve" text-anchor="start" x="402.75" y="-186.5" font-family="Helvetica,sans-Serif" font-size="10.00">firmware/services/baseline</text>
<text xml:space="preserve" text-anchor="middle" x="460.88" y="-174.5" font-family="Helvetica,sans-Serif" font-size="10.00">_learner.c</text>
</a>
</g>
</g>
<!-- Node2 -->
<g id="Node000002" class="node">
<title>Node2</title>
<g id="a_Node000002"><a xlink:href="baseline__learner_8h.html" target="_top" xlink:title=" ">
<polygon fill="white" stroke="#666666" points="198.25,-132 103.5,-132 103.5,-112 198.25,-112 198.25,-132"/>
<text xml:space="preserve" text-anchor="middle" x="150.88" y="-118.5" font-family="Helvetica,sans-Serif" font-size="10.00">baseline_learner.h</text>
</a>
</g>
</g>
<!-- Node1&#45;&gt;Node2 -->
<g id="edge1_Node000001_Node000002" class="edge">
<title>Node1&#45;&gt;Node2</title>
<g id="a_edge1_Node000001_Node000002"><a xlink:title=" ">
<path fill="none" stroke="#63b8ff" d="M394.37,-170.13C339.51,-159.51 262.4,-144.59 209.75,-134.4"/>
<polygon fill="#63b8ff" stroke="#63b8ff" points="210.54,-130.98 200.06,-132.52 209.21,-137.86 210.54,-130.98"/>
</a>
</g>
</g>
<!-- Node7 -->
<g id="Node000007" class="node">
<title>Node7</title>
<g id="a_Node000007"><a xlink:href="app__config_8h.html" target="_top" xlink:title=" ">
<polygon fill="white" stroke="#666666" points="287.62,-132 216.12,-132 216.12,-112 287.62,-112 287.62,-132"/>
<text xml:space="preserve" text-anchor="middle" x="251.88" y="-118.5" font-family="Helvetica,sans-Serif" font-size="10.00">app_config.h</text>
</a>
</g>
</g>
<!-- Node1&#45;&gt;Node7 -->
<g id="edge7_Node000001_Node000007" class="edge">
<title>Node1&#45;&gt;Node7</title>
<g id="a_edge7_Node000001_Node000007"><a xlink:title=" ">
<path fill="none" stroke="#63b8ff" d="M407.05,-167.55C372.54,-157.64 328.3,-144.94 295.89,-135.64"/>
<polygon fill="#63b8ff" stroke="#63b8ff" points="296.99,-132.31 286.41,-132.91 295.05,-139.04 296.99,-132.31"/>
</a>
</g>
</g>
<!-- Node8 -->
<g id="Node000008" class="node">
<title>Node8</title>
<g id="a_Node000008"><a xlink:href="logger_8h.html" target="_top" xlink:title=" ">
<polygon fill="white" stroke="#666666" points="356.12,-132 305.62,-132 305.62,-112 356.12,-112 356.12,-132"/>
<text xml:space="preserve" text-anchor="middle" x="330.88" y="-118.5" font-family="Helvetica,sans-Serif" font-size="10.00">logger.h</text>
</a>
</g>
</g>
<!-- Node1&#45;&gt;Node8 -->
<g id="edge8_Node000001_Node000008" class="edge">
<title>Node1&#45;&gt;Node8</title>
<g id="a_edge8_Node000001_Node000008"><a xlink:title=" ">
<path fill="none" stroke="#63b8ff" d="M427.4,-167.55C407.08,-158.17 381.35,-146.3 361.57,-137.17"/>
<polygon fill="#63b8ff" stroke="#63b8ff" points="363.18,-134.06 352.63,-133.04 360.25,-140.41 363.18,-134.06"/>
</a>
</g>
</g>
<!-- Node10 -->
<g id="Node000010" class="node">
<title>Node10</title>
<g id="a_Node000010"><a xlink:title=" ">
<polygon fill="#e0e0e0" stroke="#999999" points="417.38,-132 374.38,-132 374.38,-112 417.38,-112 417.38,-132"/>
<text xml:space="preserve" text-anchor="middle" x="395.88" y="-118.5" font-family="Helvetica,sans-Serif" font-size="10.00">float.h</text>
</a>
</g>
</g>
<!-- Node1&#45;&gt;Node10 -->
<g id="edge10_Node000001_Node000010" class="edge">
<title>Node1&#45;&gt;Node10</title>
<g id="a_edge10_Node000001_Node000010"><a xlink:title=" ">
<path fill="none" stroke="#63b8ff" d="M444.14,-167.55C435.01,-159.13 423.71,-148.69 414.33,-140.04"/>
<polygon fill="#63b8ff" stroke="#63b8ff" points="416.9,-137.65 407.18,-133.43 412.15,-142.79 416.9,-137.65"/>
</a>
</g>
</g>
<!-- Node11 -->
<g id="Node000011" class="node">
<title>Node11</title>
<g id="a_Node000011"><a xlink:title=" ">
<polygon fill="#e0e0e0" stroke="#999999" points="486.5,-132 435.25,-132 435.25,-112 486.5,-112 486.5,-132"/>
<text xml:space="preserve" text-anchor="middle" x="460.88" y="-118.5" font-family="Helvetica,sans-Serif" font-size="10.00">stddef.h</text>
</a>
</g>
</g>
<!-- Node1&#45;&gt;Node11 -->
<g id="edge11_Node000001_Node000011" class="edge">
<title>Node1&#45;&gt;Node11</title>
<g id="a_edge11_Node000001_Node000011"><a xlink:title=" ">
<path fill="none" stroke="#63b8ff" d="M460.88,-167.55C460.88,-160.34 460.88,-151.66 460.88,-143.88"/>
<polygon fill="#63b8ff" stroke="#63b8ff" points="464.38,-143.92 460.88,-133.92 457.38,-143.92 464.38,-143.92"/>
</a>
</g>
</g>
<!-- Node12 -->
<g id="Node000012" class="node">
<title>Node12</title>
<g id="a_Node000012"><a xlink:title=" ">
<polygon fill="#e0e0e0" stroke="#999999" points="550.88,-132 504.88,-132 504.88,-112 550.88,-112 550.88,-132"/>
<text xml:space="preserve" text-anchor="middle" x="527.88" y="-118.5" font-family="Helvetica,sans-Serif" font-size="10.00">math.h</text>
</a>
</g>
</g>
<!-- Node1&#45;&gt;Node12 -->
<g id="edge12_Node000001_Node000012" class="edge">
<title>Node1&#45;&gt;Node12</title>
<g id="a_edge12_Node000001_Node000012"><a xlink:title=" ">
<path fill="none" stroke="#63b8ff" d="M478.13,-167.55C487.53,-159.13 499.19,-148.69 508.85,-140.04"/>
<polygon fill="#63b8ff" stroke="#63b8ff" points="511.13,-142.7 516.24,-133.42 506.46,-137.48 511.13,-142.7"/>
</a>
</g>
</g>
<!-- Node13 -->
<g id="Node000013" class="node">
<title>Node13</title>
<g id="a_Node000013"><a xlink:title=" ">
<polygon fill="#e0e0e0" stroke="#999999" points="617,-132 568.75,-132 568.75,-112 617,-112 617,-132"/>
<text xml:space="preserve" text-anchor="middle" x="592.88" y="-118.5" font-family="Helvetica,sans-Serif" font-size="10.00">string.h</text>
</a>
</g>
</g>
<!-- Node1&#45;&gt;Node13 -->
<g id="edge13_Node000001_Node000013" class="edge">
<title>Node1&#45;&gt;Node13</title>
<g id="a_edge13_Node000001_Node000013"><a xlink:title=" ">
<path fill="none" stroke="#63b8ff" d="M494.87,-167.55C515.49,-158.17 541.62,-146.3 561.71,-137.17"/>
<polygon fill="#63b8ff" stroke="#63b8ff" points="563.14,-140.36 570.8,-133.03 560.25,-133.99 563.14,-140.36"/>
</a>
</g>
</g>
<!-- Node14 -->
<g id="Node000014" class="node">
<title>Node14</title>
<g id="a_Node000014"><a xlink:title=" ">
<polygon fill="#e0e0e0" stroke="#999999" points="674.88,-132 634.88,-132 634.88,-112 674.88,-112 674.88,-132"/>
<text xml:space="preserve" text-anchor="middle" x="654.88" y="-118.5" font-family="Helvetica,sans-Serif" font-size="10.00">nvs.h</text>
</a>
</g>
</g>
<!-- Node1&#45;&gt;Node14 -->
<g id="edge14_Node000001_Node000014" class="edge">
<title>Node1&#45;&gt;Node14</title>
<g id="a_edge14_Node000001_Node000014"><a xlink:title=" ">
<path fill="none" stroke="#63b8ff" d="M511.06,-167.5C541.27,-158.17 580.78,-145.96 623.87,-132.62"/>
<polygon fill="#63b8ff" stroke="#63b8ff" points="624.63,-136.05 633.15,-129.74 622.56,-129.36 624.63,-136.05"/>
</a>
</g>
</g>
<!-- Node15 -->
<g id="Node000015" class="node">
<title>Node15</title>
<g id="a_Node000015"><a xlink:title=" ">
<polygon fill="#e0e0e0" stroke="#999999" points="759,-132 692.75,-132 692.75,-112 759,-112 759,-132"/>
<text xml:space="preserve" text-anchor="middle" x="725.88" y="-118.5" font-family="Helvetica,sans-Serif" font-size="10.00">nvs_flash.h</text>
</a>
</g>
</g>
<!-- Node1&#45;&gt;Node15 -->
<g id="edge15_Node000001_Node000015" class="edge">
<title>Node1&#45;&gt;Node15</title>
<g id="a_edge15_Node000001_Node000015"><a xlink:title=" ">
<path fill="none" stroke="#63b8ff" d="M527.4,-167.94C575.57,-157.03 639.36,-142.59 681.46,-133.06"/>
<polygon fill="#63b8ff" stroke="#63b8ff" points="682.01,-136.52 690.99,-130.9 680.47,-129.69 682.01,-136.52"/>
</a>
</g>
</g>
<!-- Node3 -->
<g id="Node000003" class="node">
<title>Node3</title>
<g id="a_Node000003"><a xlink:title=" ">
<polygon fill="#e0e0e0" stroke="#999999" points="55.75,-76 0,-76 0,-56 55.75,-56 55.75,-76"/>
<text xml:space="preserve" text-anchor="middle" x="27.88" y="-62.5" font-family="Helvetica,sans-Serif" font-size="10.00">stdbool.h</text>
</a>
</g>
</g>
<!-- Node2&#45;&gt;Node3 -->
<g id="edge2_Node000002_Node000003" class="edge">
<title>Node2&#45;&gt;Node3</title>
<g id="a_edge2_Node000002_Node000003"><a xlink:title=" ">
<path fill="none" stroke="#63b8ff" d="M129.45,-111.59C110.25,-103.17 81.83,-90.69 59.93,-81.07"/>
<polygon fill="#63b8ff" stroke="#63b8ff" points="61.42,-77.9 50.85,-77.09 58.6,-84.31 61.42,-77.9"/>
</a>
</g>
</g>
<!-- Node4 -->
<g id="Node000004" class="node">
<title>Node4</title>
<g id="a_Node000004"><a xlink:title=" ">
<polygon fill="#e0e0e0" stroke="#999999" points="145,-20 96.75,-20 96.75,0 145,0 145,-20"/>
<text xml:space="preserve" text-anchor="middle" x="120.88" y="-6.5" font-family="Helvetica,sans-Serif" font-size="10.00">stdint.h</text>
</a>
</g>
</g>
<!-- Node2&#45;&gt;Node4 -->
<g id="edge3_Node000002_Node000004" class="edge">
<title>Node2&#45;&gt;Node4</title>
<g id="a_edge3_Node000002_Node000004"><a xlink:title=" ">
<path fill="none" stroke="#63b8ff" d="M135.58,-111.69C124.18,-103.79 109.5,-91.3 102.88,-76 96.4,-61.06 102.27,-43.17 108.99,-29.94"/>
<polygon fill="#63b8ff" stroke="#63b8ff" points="111.94,-31.84 113.83,-21.42 105.85,-28.39 111.94,-31.84"/>
</a>
</g>
</g>
<!-- Node5 -->
<g id="Node000005" class="node">
<title>Node5</title>
<g id="a_Node000005"><a xlink:href="operating__state_8h.html" target="_top" xlink:title=" ">
<polygon fill="white" stroke="#666666" points="203.38,-76 112.38,-76 112.38,-56 203.38,-56 203.38,-76"/>
<text xml:space="preserve" text-anchor="middle" x="157.88" y="-62.5" font-family="Helvetica,sans-Serif" font-size="10.00">operating_state.h</text>
</a>
</g>
</g>
<!-- Node2&#45;&gt;Node5 -->
<g id="edge4_Node000002_Node000005" class="edge">
<title>Node2&#45;&gt;Node5</title>
<g id="a_edge4_Node000002_Node000005"><a xlink:title=" ">
<path fill="none" stroke="#63b8ff" d="M152.09,-111.59C152.96,-104.93 154.15,-95.75 155.23,-87.44"/>
<polygon fill="#63b8ff" stroke="#63b8ff" points="158.66,-88.17 156.48,-77.8 151.72,-87.27 158.66,-88.17"/>
</a>
</g>
</g>
<!-- Node6 -->
<g id="Node000006" class="node">
<title>Node6</title>
<g id="a_Node000006"><a xlink:title=" ">
<polygon fill="#e0e0e0" stroke="#999999" points="278.12,-76 221.62,-76 221.62,-56 278.12,-56 278.12,-76"/>
<text xml:space="preserve" text-anchor="middle" x="249.88" y="-62.5" font-family="Helvetica,sans-Serif" font-size="10.00">esp_err.h</text>
</a>
</g>
</g>
<!-- Node2&#45;&gt;Node6 -->
<g id="edge6_Node000002_Node000006" class="edge">
<title>Node2&#45;&gt;Node6</title>
<g id="a_edge6_Node000002_Node000006"><a xlink:title=" ">
<path fill="none" stroke="#63b8ff" d="M168.12,-111.59C183.22,-103.36 205.4,-91.26 222.86,-81.74"/>
<polygon fill="#63b8ff" stroke="#63b8ff" points="224.06,-85.07 231.17,-77.2 220.71,-78.92 224.06,-85.07"/>
</a>
</g>
</g>
<!-- Node5&#45;&gt;Node4 -->
<g id="edge5_Node000005_Node000004" class="edge">
<title>Node5&#45;&gt;Node4</title>
<g id="a_edge5_Node000005_Node000004"><a xlink:title=" ">
<path fill="none" stroke="#63b8ff" d="M151.43,-55.59C146.55,-48.47 139.68,-38.45 133.7,-29.72"/>
<polygon fill="#63b8ff" stroke="#63b8ff" points="136.64,-27.82 128.1,-21.55 130.87,-31.77 136.64,-27.82"/>
</a>
</g>
</g>
<!-- Node9 -->
<g id="Node000009" class="node">
<title>Node9</title>
<g id="a_Node000009"><a xlink:title=" ">
<polygon fill="#e0e0e0" stroke="#999999" points="359.88,-76 301.88,-76 301.88,-56 359.88,-56 359.88,-76"/>
<text xml:space="preserve" text-anchor="middle" x="330.88" y="-62.5" font-family="Helvetica,sans-Serif" font-size="10.00">esp_log.h</text>
</a>
</g>
</g>
<!-- Node8&#45;&gt;Node9 -->
<g id="edge9_Node000008_Node000009" class="edge">
<title>Node8&#45;&gt;Node9</title>
<g id="a_edge9_Node000008_Node000009"><a xlink:title=" ">
<path fill="none" stroke="#63b8ff" d="M330.88,-111.59C330.88,-105.01 330.88,-95.96 330.88,-87.73"/>
<polygon fill="#63b8ff" stroke="#63b8ff" points="334.38,-87.81 330.88,-77.81 327.38,-87.81 334.38,-87.81"/>
</a>
</g>
</g>
</g>
</svg>
