<?xml version="1.0" encoding="UTF-8" standalone="no"?>
<!DOCTYPE svg PUBLIC "-//W3C//DTD SVG 1.1//EN"
 "http://www.w3.org/Graphics/SVG/1.1/DTD/svg11.dtd">
<!-- Generated by graphviz version 15.1.1 (20260805.0921)
 -->
<!-- Title: start_server Pages: 1 -->
<svg width="678pt" height="268pt"
 viewBox="0.00 0.00 678.00 268.00" xmlns="http://www.w3.org/2000/svg" xmlns:xlink="http://www.w3.org/1999/xlink">
<g id="graph0" class="graph" transform="scale(1 1) rotate(0) translate(4 264)">
<title>start_server</title>
<!-- Node1 -->
<g id="Node000001" class="node">
<title>Node1</title>
<g id="a_Node000001"><a xlink:title=" ">
<polygon fill="#999999" stroke="#666666" points="67.75,-153 0,-153 0,-133 67.75,-133 67.75,-153"/>
<text xml:space="preserve" text-anchor="middle" x="33.88" y="-139.5" font-family="Helvetica,sans-Serif" font-size="10.00">start_server</text>
</a>
</g>
</g>
<!-- Node2 -->
<g id="Node000002" class="node">
<title>Node2</title>
<g id="a_Node000002"><a xlink:href="dashboard_8c.html#a3fb82a9061cb43cccfe1e592fb9c7e45" target="_top" xlink:title=" ">
<polygon fill="white" stroke="#666666" points="186.5,-213 103.75,-213 103.75,-193 186.5,-193 186.5,-213"/>
<text xml:space="preserve" text-anchor="middle" x="145.12" y="-199.5" font-family="Helvetica,sans-Serif" font-size="10.00">command_post</text>
</a>
</g>
</g>
<!-- Node1&#45;&gt;Node2 -->
<g id="edge1_Node000001_Node000002" class="edge">
<title>Node1&#45;&gt;Node2</title>
<g id="a_edge1_Node000001_Node000002"><a xlink:title=" ">
<path fill="none" stroke="#63b8ff" d="M53.57,-153.35C67.41,-161 86.75,-171.68 103.75,-181 107.39,-183 111.23,-185.09 115.02,-187.16"/>
<polygon fill="#63b8ff" stroke="#63b8ff" points="113.02,-190.06 123.48,-191.78 116.38,-183.92 113.02,-190.06"/>
</a>
</g>
</g>
<!-- Node10 -->
<g id="Node000010" class="node">
<title>Node10</title>
<g id="a_Node000010"><a xlink:href="dashboard_8c.html#a4d2d55e5717487239d76faf3d59daa1e" target="_top" xlink:title=" ">
<polygon fill="white" stroke="#666666" points="177.12,-172 113.12,-172 113.12,-152 177.12,-152 177.12,-172"/>
<text xml:space="preserve" text-anchor="middle" x="145.12" y="-158.5" font-family="Helvetica,sans-Serif" font-size="10.00">history_get</text>
</a>
</g>
</g>
<!-- Node1&#45;&gt;Node10 -->
<g id="edge9_Node000001_Node000010" class="edge">
<title>Node1&#45;&gt;Node10</title>
<g id="a_edge9_Node000001_Node000010"><a xlink:title=" ">
<path fill="none" stroke="#63b8ff" d="M68.25,-148.8C78.77,-150.63 90.55,-152.68 101.62,-154.61"/>
<polygon fill="#63b8ff" stroke="#63b8ff" points="100.88,-158.03 111.33,-156.3 102.08,-151.14 100.88,-158.03"/>
</a>
</g>
</g>
<!-- Node12 -->
<g id="Node000012" class="node">
<title>Node12</title>
<g id="a_Node000012"><a xlink:href="dashboard_8c.html#a1a32a65967c664ae4b1cba92335b2430" target="_top" xlink:title=" ">
<polygon fill="white" stroke="#666666" points="170.75,-134 119.5,-134 119.5,-114 170.75,-114 170.75,-134"/>
<text xml:space="preserve" text-anchor="middle" x="145.12" y="-120.5" font-family="Helvetica,sans-Serif" font-size="10.00">root_get</text>
</a>
</g>
</g>
<!-- Node1&#45;&gt;Node12 -->
<g id="edge11_Node000001_Node000012" class="edge">
<title>Node1&#45;&gt;Node12</title>
<g id="a_edge11_Node000001_Node000012"><a xlink:title=" ">
<path fill="none" stroke="#63b8ff" d="M68.25,-137.2C80.83,-135.01 95.21,-132.51 108.03,-130.28"/>
<polygon fill="#63b8ff" stroke="#63b8ff" points="108.54,-133.74 117.79,-128.58 107.34,-126.85 108.54,-133.74"/>
</a>
</g>
</g>
<!-- Node13 -->
<g id="Node000013" class="node">
<title>Node13</title>
<g id="a_Node000013"><a xlink:href="dashboard_8c.html#a1cad712db3b2c1837a7664566e244db2" target="_top" xlink:title=" ">
<polygon fill="white" stroke="#666666" points="176,-96 114.25,-96 114.25,-76 176,-76 176,-96"/>
<text xml:space="preserve" text-anchor="middle" x="145.12" y="-82.5" font-family="Helvetica,sans-Serif" font-size="10.00">status_get</text>
</a>
</g>
</g>
<!-- Node1&#45;&gt;Node13 -->
<g id="edge12_Node000001_Node000013" class="edge">
<title>Node1&#45;&gt;Node13</title>
<g id="a_edge12_Node000001_Node000013"><a xlink:title=" ">
<path fill="none" stroke="#63b8ff" d="M53.12,-132.51C66.9,-124.7 86.36,-113.88 103.75,-105 106.14,-103.78 108.62,-102.55 111.12,-101.32"/>
<polygon fill="#63b8ff" stroke="#63b8ff" points="112.5,-104.54 120,-97.05 109.47,-98.23 112.5,-104.54"/>
</a>
</g>
</g>
<!-- Node3 -->
<g id="Node000003" class="node">
<title>Node3</title>
<g id="a_Node000003"><a xlink:href="commissioning_8c.html#a725bfa34ca504f4314a9ebec4eb0461a" target="_top" xlink:title=" ">
<polygon fill="white" stroke="#666666" points="345.75,-222 222.5,-222 222.5,-190 345.75,-190 345.75,-222"/>
<text xml:space="preserve" text-anchor="start" x="230.5" y="-208.5" font-family="Helvetica,sans-Serif" font-size="10.00">commissioning_dispatch</text>
<text xml:space="preserve" text-anchor="middle" x="284.12" y="-196.5" font-family="Helvetica,sans-Serif" font-size="10.00">_command</text>
</a>
</g>
</g>
<!-- Node2&#45;&gt;Node3 -->
<g id="edge2_Node000002_Node000003" class="edge">
<title>Node2&#45;&gt;Node3</title>
<g id="a_edge2_Node000002_Node000003"><a xlink:title=" ">
<path fill="none" stroke="#63b8ff" d="M186.86,-203.89C194.36,-204.06 202.4,-204.23 210.52,-204.41"/>
<polygon fill="#63b8ff" stroke="#63b8ff" points="210.42,-207.91 220.49,-204.63 210.57,-200.91 210.42,-207.91"/>
</a>
</g>
</g>
<!-- Node4 -->
<g id="Node000004" class="node">
<title>Node4</title>
<g id="a_Node000004"><a xlink:href="baseline__learner_8c.html#a02dbbd87831000f950a8fffe1ab576a8" target="_top" xlink:title=" ">
<polygon fill="white" stroke="#666666" points="504.62,-260 391.12,-260 391.12,-240 504.62,-240 504.62,-260"/>
<text xml:space="preserve" text-anchor="middle" x="447.88" y="-246.5" font-family="Helvetica,sans-Serif" font-size="10.00">baseline_learner_reset</text>
</a>
</g>
</g>
<!-- Node3&#45;&gt;Node4 -->
<g id="edge3_Node000003_Node000004" class="edge">
<title>Node3&#45;&gt;Node4</title>
<g id="a_edge3_Node000003_Node000004"><a xlink:title=" ">
<path fill="none" stroke="#63b8ff" d="M345.35,-222.38C362.58,-227.07 381.14,-232.12 397.62,-236.6"/>
<polygon fill="#63b8ff" stroke="#63b8ff" points="396.63,-239.96 407.2,-239.21 398.47,-233.2 396.63,-239.96"/>
</a>
</g>
</g>
<!-- Node5 -->
<g id="Node000005" class="node">
<title>Node5</title>
<g id="a_Node000005"><a xlink:href="baseline__learner_8c.html#af7ed3b00b40b42bda98ab1610b04e26b" target="_top" xlink:title=" ">
<polygon fill="white" stroke="#666666" points="500.5,-222 395.25,-222 395.25,-190 500.5,-190 500.5,-222"/>
<text xml:space="preserve" text-anchor="start" x="403.25" y="-208.5" font-family="Helvetica,sans-Serif" font-size="10.00">baseline_learner_set</text>
<text xml:space="preserve" text-anchor="middle" x="447.88" y="-196.5" font-family="Helvetica,sans-Serif" font-size="10.00">_learning</text>
</a>
</g>
</g>
<!-- Node3&#45;&gt;Node5 -->
<g id="edge4_Node000003_Node000005" class="edge">
<title>Node3&#45;&gt;Node5</title>
<g id="a_edge4_Node000003_Node000005"><a xlink:title=" ">
<path fill="none" stroke="#63b8ff" d="M345.81,-206C358.17,-206 371.19,-206 383.63,-206"/>
<polygon fill="#63b8ff" stroke="#63b8ff" points="383.34,-209.5 393.34,-206 383.34,-202.5 383.34,-209.5"/>
</a>
</g>
</g>
<!-- Node6 -->
<g id="Node000006" class="node">
<title>Node6</title>
<g id="a_Node000006"><a xlink:href="commissioning_8c.html#a41bd45ce8036a32686381e0101c943ff" target="_top" xlink:title=" ">
<polygon fill="white" stroke="#666666" points="496.38,-172 399.38,-172 399.38,-152 496.38,-152 496.38,-172"/>
<text xml:space="preserve" text-anchor="middle" x="447.88" y="-158.5" font-family="Helvetica,sans-Serif" font-size="10.00">command_is_valid</text>
</a>
</g>
</g>
<!-- Node3&#45;&gt;Node6 -->
<g id="edge5_Node000003_Node000006" class="edge">
<title>Node3&#45;&gt;Node6</title>
<g id="a_edge5_Node000003_Node000006"><a xlink:title=" ">
<path fill="none" stroke="#63b8ff" d="M345.35,-189.62C362.58,-184.93 381.14,-179.88 397.62,-175.4"/>
<polygon fill="#63b8ff" stroke="#63b8ff" points="398.47,-178.8 407.2,-172.79 396.63,-172.04 398.47,-178.8"/>
</a>
</g>
</g>
<!-- Node7 -->
<g id="Node000007" class="node">
<title>Node7</title>
<g id="a_Node000007"><a xlink:href="commissioning_8c.html#a0c4983d317ae69e76c98a95ba37b922b" target="_top" xlink:title=" ">
<polygon fill="white" stroke="#666666" points="514,-134 381.75,-134 381.75,-114 514,-114 514,-134"/>
<text xml:space="preserve" text-anchor="middle" x="447.88" y="-120.5" font-family="Helvetica,sans-Serif" font-size="10.00">commissioning_get_status</text>
</a>
</g>
</g>
<!-- Node3&#45;&gt;Node7 -->
<g id="edge6_Node000003_Node000007" class="edge">
<title>Node3&#45;&gt;Node7</title>
<g id="a_edge6_Node000003_Node000007"><a xlink:title=" ">
<path fill="none" stroke="#63b8ff" d="M330.92,-189.59C336.09,-187.02 341.15,-184.16 345.75,-181 364.93,-167.83 361.89,-155.12 381.75,-143 384.21,-141.5 386.8,-140.11 389.47,-138.82"/>
<polygon fill="#63b8ff" stroke="#63b8ff" points="390.79,-142.06 398.65,-134.96 388.07,-135.61 390.79,-142.06"/>
</a>
</g>
</g>
<!-- Node8 -->
<g id="Node000008" class="node">
<title>Node8</title>
<g id="a_Node000008"><a xlink:href="baseline__learner_8c.html#a71812ece2198bbc6b001286d9488d349" target="_top" xlink:title=" ">
<polygon fill="white" stroke="#666666" points="670.25,-156 550,-156 550,-136 670.25,-136 670.25,-156"/>
<text xml:space="preserve" text-anchor="middle" x="610.12" y="-142.5" font-family="Helvetica,sans-Serif" font-size="10.00">baseline_learner_cycles</text>
</a>
</g>
</g>
<!-- Node7&#45;&gt;Node8 -->
<g id="edge7_Node000007_Node000008" class="edge">
<title>Node7&#45;&gt;Node8</title>
<g id="a_edge7_Node000007_Node000008"><a xlink:title=" ">
<path fill="none" stroke="#63b8ff" d="M514.05,-132.95C522.06,-134.05 530.28,-135.18 538.37,-136.29"/>
<polygon fill="#63b8ff" stroke="#63b8ff" points="537.8,-139.74 548.18,-137.63 538.75,-132.81 537.8,-139.74"/>
</a>
</g>
</g>
<!-- Node9 -->
<g id="Node000009" class="node">
<title>Node9</title>
<g id="a_Node000009"><a xlink:href="baseline__learner_8c.html#ac227edd4d14592e8a1df784d73d80d89" target="_top" xlink:title=" ">
<polygon fill="white" stroke="#666666" points="659.75,-118 560.5,-118 560.5,-86 659.75,-86 659.75,-118"/>
<text xml:space="preserve" text-anchor="start" x="568.5" y="-104.5" font-family="Helvetica,sans-Serif" font-size="10.00">baseline_learner_is</text>
<text xml:space="preserve" text-anchor="middle" x="610.12" y="-92.5" font-family="Helvetica,sans-Serif" font-size="10.00">_valid</text>
</a>
</g>
</g>
<!-- Node7&#45;&gt;Node9 -->
<g id="edge8_Node000007_Node000009" class="edge">
<title>Node7&#45;&gt;Node9</title>
<g id="a_edge8_Node000007_Node000009"><a xlink:title=" ">
<path fill="none" stroke="#63b8ff" d="M514.05,-115.05C525.62,-113.46 537.62,-111.82 549.04,-110.25"/>
<polygon fill="#63b8ff" stroke="#63b8ff" points="549.3,-113.75 558.73,-108.92 548.35,-106.81 549.3,-113.75"/>
</a>
</g>
</g>
<!-- Node11 -->
<g id="Node000011" class="node">
<title>Node11</title>
<g id="a_Node000011"><a xlink:href="telemetry_8c.html#a2288ba280792907f10d392665c8b0d4f" target="_top" xlink:title=" ">
<polygon fill="white" stroke="#666666" points="341.25,-172 227,-172 227,-152 341.25,-152 341.25,-172"/>
<text xml:space="preserve" text-anchor="middle" x="284.12" y="-158.5" font-family="Helvetica,sans-Serif" font-size="10.00">telemetry_history_json</text>
</a>
</g>
</g>
<!-- Node10&#45;&gt;Node11 -->
<g id="edge10_Node000010_Node000011" class="edge">
<title>Node10&#45;&gt;Node11</title>
<g id="a_edge10_Node000010_Node000011"><a xlink:title=" ">
<path fill="none" stroke="#63b8ff" d="M177.56,-162C188.8,-162 201.95,-162 215.07,-162"/>
<polygon fill="#63b8ff" stroke="#63b8ff" points="215.04,-165.5 225.04,-162 215.04,-158.5 215.04,-165.5"/>
</a>
</g>
</g>
<!-- Node13&#45;&gt;Node7 -->
<g id="edge14_Node000013_Node000007" class="edge">
<title>Node13&#45;&gt;Node7</title>
<g id="a_edge14_Node000013_Node000007"><a xlink:title=" ">
<path fill="none" stroke="#63b8ff" d="M176.37,-94.7C190.31,-98.41 207.13,-102.45 222.5,-105 271.36,-113.09 326.8,-117.83 370.35,-120.55"/>
<polygon fill="#63b8ff" stroke="#63b8ff" points="370.03,-124.04 380.22,-121.14 370.45,-117.05 370.03,-124.04"/>
</a>
</g>
</g>
<!-- Node14 -->
<g id="Node000014" class="node">
<title>Node14</title>
<g id="a_Node000014"><a xlink:href="anomaly__detector_8c.html#a6a824e20a2a231ab81b000be9819d3a0" target="_top" xlink:title=" ">
<polygon fill="white" stroke="#666666" points="345.38,-96 222.88,-96 222.88,-76 345.38,-76 345.38,-96"/>
<text xml:space="preserve" text-anchor="middle" x="284.12" y="-82.5" font-family="Helvetica,sans-Serif" font-size="10.00">anomaly_detector_name</text>
</a>
</g>
</g>
<!-- Node13&#45;&gt;Node14 -->
<g id="edge13_Node000013_Node000014" class="edge">
<title>Node13&#45;&gt;Node14</title>
<g id="a_edge13_Node000013_Node000014"><a xlink:title=" ">
<path fill="none" stroke="#63b8ff" d="M176.19,-86C186.62,-86 198.81,-86 211.16,-86"/>
<polygon fill="#63b8ff" stroke="#63b8ff" points="210.97,-89.5 220.97,-86 210.97,-82.5 210.97,-89.5"/>
</a>
</g>
</g>
<!-- Node15 -->
<g id="Node000015" class="node">
<title>Node15</title>
<g id="a_Node000015"><a xlink:href="operating__state_8c.html#ac7429baa4f46fad20049447460d40126" target="_top" xlink:title=" ">
<polygon fill="white" stroke="#666666" points="340.12,-58 228.12,-58 228.12,-38 340.12,-38 340.12,-58"/>
<text xml:space="preserve" text-anchor="middle" x="284.12" y="-44.5" font-family="Helvetica,sans-Serif" font-size="10.00">operating_state_name</text>
</a>
</g>
</g>
<!-- Node13&#45;&gt;Node15 -->
<g id="edge15_Node000013_Node000015" class="edge">
<title>Node13&#45;&gt;Node15</title>
<g id="a_edge15_Node000013_Node000015"><a xlink:title=" ">
<path fill="none" stroke="#63b8ff" d="M176.19,-77.66C193.18,-72.95 214.83,-66.94 234.2,-61.57"/>
<polygon fill="#63b8ff" stroke="#63b8ff" points="235.13,-64.94 243.83,-58.9 233.26,-58.2 235.13,-64.94"/>
</a>
</g>
</g>
<!-- Node16 -->
<g id="Node000016" class="node">
<title>Node16</title>
<g id="a_Node000016"><a xlink:href="telemetry_8c.html#a669989a7a3dbbf34f6f735d258908d82" target="_top" xlink:title=" ">
<polygon fill="white" stroke="#666666" points="336.38,-20 231.88,-20 231.88,0 336.38,0 336.38,-20"/>
<text xml:space="preserve" text-anchor="middle" x="284.12" y="-6.5" font-family="Helvetica,sans-Serif" font-size="10.00">telemetry_get_latest</text>
</a>
</g>
</g>
<!-- Node13&#45;&gt;Node16 -->
<g id="edge16_Node000013_Node000016" class="edge">
<title>Node13&#45;&gt;Node16</title>
<g id="a_edge16_Node000013_Node000016"><a xlink:title=" ">
<path fill="none" stroke="#63b8ff" d="M157.21,-75.8C171.39,-63.23 197.16,-41.95 222.5,-29 225.59,-27.42 228.84,-25.94 232.16,-24.56"/>
<polygon fill="#63b8ff" stroke="#63b8ff" points="233.37,-27.85 241.49,-21.03 230.89,-21.3 233.37,-27.85"/>
</a>
</g>
</g>
</g>
</svg>
