<?xml version="1.0" encoding="UTF-8" standalone="no"?>
<!DOCTYPE svg PUBLIC "-//W3C//DTD SVG 1.1//EN"
 "http://www.w3.org/Graphics/SVG/1.1/DTD/svg11.dtd">
<!-- Generated by graphviz version 15.1.1 (20260805.0921)
 -->
<!-- Title: firmware/services/dashboard.c Pages: 1 -->
<!--zoomable 196 -->

<svg id="main" version="1.1" xmlns="http://www.w3.org/2000/svg" xmlns:xlink="http://www.w3.org/1999/xlink" xml:space="preserve" onload="init(evt)">

<style type="text/css"><![CDATA[
.node, .edge {opacity: 0.7;}
.node.selected, .edge.selected {opacity: 1;}
.edge:hover path { stroke: red; }
.edge:hover polygon { stroke: red; fill: red; }
]]></style>

<defs>
  <circle id="rim" cx="0" cy="0" r="7"/>
  <circle id="rim2" cx="0" cy="0" r="3.5"/>
  <g id="zoomPlus">
    <use xlink:href="#rim" fill="#404040"><set attributeName="fill" to="#808080" begin="zoomplus.mouseover" end="zoomplus.mouseout"/></use>
    <path d="M-4,0h8M0,-4v8" fill="none" stroke="white" stroke-width="1.5" pointer-events="none"/>
  </g>
  <g id="zoomMin">
    <use xlink:href="#rim" fill="#404040"><set attributeName="fill" to="#808080" begin="zoomminus.mouseover" end="zoomminus.mouseout"/></use>
    <path d="M-4,0h8" fill="none" stroke="white" stroke-width="1.5" pointer-events="none"/>
  </g>
  <g id="arrowUp" transform="translate(30 24)">
    <use xlink:href="#rim"/>
    <path pointer-events="none" fill="none" stroke="white" stroke-width="1.5" d="M0,-3.0v7 M-2.5,-0.5L0,-3.0L2.5,-0.5"/>
  </g>
  <g id="arrowRight" transform="rotate(90) translate(36 -43)">
    <use xlink:href="#rim"/>
    <path pointer-events="none" fill="none" stroke="white" stroke-width="1.5" d="M0,-3.0v7 M-2.5,-0.5L0,-3.0L2.5,-0.5"/>
  </g>
  <g id="arrowDown" transform="rotate(180) translate(-30 -48)">
    <use xlink:href="#rim"/>
    <path pointer-events="none" fill="none" stroke="white" stroke-width="1.5" d="M0,-3.0v7 M-2.5,-0.5L0,-3.0L2.5,-0.5"/>
  </g>
  <g id="arrowLeft" transform="rotate(270) translate(-36 17)">
    <use xlink:href="#rim"/>
    <path pointer-events="none" fill="none" stroke="white" stroke-width="1.5" d="M0,-3.0v7 M-2.5,-0.5L0,-3.0L2.5,-0.5"/>
  </g>
  <g id="resetDef">
    <use xlink:href="#rim2" fill="#404040"><set attributeName="fill" to="#808080" begin="reset.mouseover" end="reset.mouseout"/></use>
  </g>
</defs>
<script type="application/ecmascript">
var viewWidth = 1063;
var viewHeight = 196;
var sectionId = 'dynsection-0';
</script>
<script type="application/ecmascript" xlink:href="svg.min.js"/>
<svg id="graph" class="graph">
<g id="viewport">
<title>firmware/services/dashboard.c</title>
<!-- Node1 -->
<g id="Node000001" class="node">
<title>Node1</title>
<g id="a_Node000001"><a xlink:title=" ">
<polygon fill="#999999" stroke="#666666" points="596.5,-188 447,-188 447,-168 596.5,-168 596.5,-188"/>
<text xml:space="preserve" text-anchor="middle" x="521.75" y="-174.5" font-family="Helvetica,sans-Serif" font-size="10.00">firmware/services/dashboard.c</text>
</a>
</g>
</g>
<!-- Node2 -->
<g id="Node000002" class="node">
<title>Node2</title>
<g id="a_Node000002"><a xlink:href="dashboard_8h.html" target="_top" xlink:title=" ">
<polygon fill="white" stroke="#666666" points="176.38,-132 107.12,-132 107.12,-112 176.38,-112 176.38,-132"/>
<text xml:space="preserve" text-anchor="middle" x="141.75" y="-118.5" font-family="Helvetica,sans-Serif" font-size="10.00">dashboard.h</text>
</a>
</g>
</g>
<!-- Node1&#45;&gt;Node2 -->
<g id="edge1_Node000001_Node000002" class="edge">
<title>Node1&#45;&gt;Node2</title>
<g id="a_edge1_Node000001_Node000002"><a xlink:title=" ">
<path fill="none" stroke="#63b8ff" d="M446.67,-167.8C379.49,-159.34 278.37,-146 190.75,-132 189.76,-131.84 188.76,-131.68 187.75,-131.51"/>
<polygon fill="#63b8ff" stroke="#63b8ff" points="188.72,-128.13 178.27,-129.89 187.54,-135.03 188.72,-128.13"/>
</a>
</g>
</g>
<!-- Node4 -->
<g id="Node000004" class="node">
<title>Node4</title>
<g id="a_Node000004"><a xlink:href="commissioning_8h.html" target="_top" xlink:title=" ">
<polygon fill="white" stroke="#666666" points="89.5,-132 0,-132 0,-112 89.5,-112 89.5,-132"/>
<text xml:space="preserve" text-anchor="middle" x="44.75" y="-118.5" font-family="Helvetica,sans-Serif" font-size="10.00">commissioning.h</text>
</a>
</g>
</g>
<!-- Node1&#45;&gt;Node4 -->
<g id="edge3_Node000001_Node000004" class="edge">
<title>Node1&#45;&gt;Node4</title>
<g id="a_edge3_Node000001_Node000004"><a xlink:title=" ">
<path fill="none" stroke="#63b8ff" d="M446.52,-170.45C364.03,-162.94 227.48,-149.56 100.87,-132.36"/>
<polygon fill="#63b8ff" stroke="#63b8ff" points="101.71,-128.95 91.33,-131.06 100.76,-135.88 101.71,-128.95"/>
</a>
</g>
</g>
<!-- Node5 -->
<g id="Node000005" class="node">
<title>Node5</title>
<g id="a_Node000005"><a xlink:title=" ">
<polygon fill="#e0e0e0" stroke="#999999" points="258.62,-20 202.88,-20 202.88,0 258.62,0 258.62,-20"/>
<text xml:space="preserve" text-anchor="middle" x="230.75" y="-6.5" font-family="Helvetica,sans-Serif" font-size="10.00">stdbool.h</text>
</a>
</g>
</g>
<!-- Node1&#45;&gt;Node5 -->
<g id="edge23_Node000001_Node000005" class="edge">
<title>Node1&#45;&gt;Node5</title>
<g id="a_edge23_Node000001_Node000005"><a xlink:title=" ">
<path fill="none" stroke="#63b8ff" d="M446.53,-176.21C368.92,-173.62 255.42,-164.22 227.75,-132 203.65,-103.93 214.12,-57.25 223,-30.83"/>
<polygon fill="#63b8ff" stroke="#63b8ff" points="226.2,-32.27 226.33,-21.67 219.62,-29.88 226.2,-32.27"/>
</a>
</g>
</g>
<!-- Node6 -->
<g id="Node000006" class="node">
<title>Node6</title>
<g id="a_Node000006"><a xlink:href="baseline__learner_8h.html" target="_top" xlink:title=" ">
<polygon fill="white" stroke="#666666" points="331.12,-132 236.38,-132 236.38,-112 331.12,-112 331.12,-132"/>
<text xml:space="preserve" text-anchor="middle" x="283.75" y="-118.5" font-family="Helvetica,sans-Serif" font-size="10.00">baseline_learner.h</text>
</a>
</g>
</g>
<!-- Node1&#45;&gt;Node6 -->
<g id="edge6_Node000001_Node000006" class="edge">
<title>Node1&#45;&gt;Node6</title>
<g id="a_edge6_Node000001_Node000006"><a xlink:title=" ">
<path fill="none" stroke="#63b8ff" d="M480.02,-167.53C440.13,-158.48 379.82,-144.8 336.58,-134.99"/>
<polygon fill="#63b8ff" stroke="#63b8ff" points="337.43,-131.59 326.91,-132.79 335.88,-138.42 337.43,-131.59"/>
</a>
</g>
</g>
<!-- Node9 -->
<g id="Node000009" class="node">
<title>Node9</title>
<g id="a_Node000009"><a xlink:href="telemetry_8h.html" target="_top" xlink:title=" ">
<polygon fill="white" stroke="#666666" points="412.75,-132 348.75,-132 348.75,-112 412.75,-112 412.75,-132"/>
<text xml:space="preserve" text-anchor="middle" x="380.75" y="-118.5" font-family="Helvetica,sans-Serif" font-size="10.00">telemetry.h</text>
</a>
</g>
</g>
<!-- Node1&#45;&gt;Node9 -->
<g id="edge12_Node000001_Node000009" class="edge">
<title>Node1&#45;&gt;Node9</title>
<g id="a_edge12_Node000001_Node000009"><a xlink:title=" ">
<path fill="none" stroke="#63b8ff" d="M497.19,-167.59C474.78,-159.01 441.41,-146.23 416.13,-136.55"/>
<polygon fill="#63b8ff" stroke="#63b8ff" points="417.51,-133.33 406.92,-133.02 415,-139.87 417.51,-133.33"/>
</a>
</g>
</g>
<!-- Node12 -->
<g id="Node000012" class="node">
<title>Node12</title>
<g id="a_Node000012"><a xlink:href="logger_8h.html" target="_top" xlink:title=" ">
<polygon fill="white" stroke="#666666" points="481,-132 430.5,-132 430.5,-112 481,-112 481,-132"/>
<text xml:space="preserve" text-anchor="middle" x="455.75" y="-118.5" font-family="Helvetica,sans-Serif" font-size="10.00">logger.h</text>
</a>
</g>
</g>
<!-- Node1&#45;&gt;Node12 -->
<g id="edge20_Node000001_Node000012" class="edge">
<title>Node1&#45;&gt;Node12</title>
<g id="a_edge20_Node000001_Node000012"><a xlink:title=" ">
<path fill="none" stroke="#63b8ff" d="M510.25,-167.59C500.79,-159.85 487.15,-148.69 475.88,-139.47"/>
<polygon fill="#63b8ff" stroke="#63b8ff" points="478.24,-136.88 468.29,-133.26 473.81,-142.3 478.24,-136.88"/>
</a>
</g>
</g>
<!-- Node14 -->
<g id="Node000014" class="node">
<title>Node14</title>
<g id="a_Node000014"><a xlink:title=" ">
<polygon fill="#e0e0e0" stroke="#999999" points="544.38,-132 499.12,-132 499.12,-112 544.38,-112 544.38,-132"/>
<text xml:space="preserve" text-anchor="middle" x="521.75" y="-118.5" font-family="Helvetica,sans-Serif" font-size="10.00">stdio.h</text>
</a>
</g>
</g>
<!-- Node1&#45;&gt;Node14 -->
<g id="edge22_Node000001_Node000014" class="edge">
<title>Node1&#45;&gt;Node14</title>
<g id="a_edge22_Node000001_Node000014"><a xlink:title=" ">
<path fill="none" stroke="#63b8ff" d="M521.75,-167.59C521.75,-161.01 521.75,-151.96 521.75,-143.73"/>
<polygon fill="#63b8ff" stroke="#63b8ff" points="525.25,-143.81 521.75,-133.81 518.25,-143.81 525.25,-143.81"/>
</a>
</g>
</g>
<!-- Node15 -->
<g id="Node000015" class="node">
<title>Node15</title>
<g id="a_Node000015"><a xlink:title=" ">
<polygon fill="#e0e0e0" stroke="#999999" points="610.88,-132 562.62,-132 562.62,-112 610.88,-112 610.88,-132"/>
<text xml:space="preserve" text-anchor="middle" x="586.75" y="-118.5" font-family="Helvetica,sans-Serif" font-size="10.00">string.h</text>
</a>
</g>
</g>
<!-- Node1&#45;&gt;Node15 -->
<g id="edge24_Node000001_Node000015" class="edge">
<title>Node1&#45;&gt;Node15</title>
<g id="a_edge24_Node000001_Node000015"><a xlink:title=" ">
<path fill="none" stroke="#63b8ff" d="M533.07,-167.59C542.39,-159.85 555.83,-148.69 566.93,-139.47"/>
<polygon fill="#63b8ff" stroke="#63b8ff" points="568.94,-142.35 574.39,-133.27 564.46,-136.96 568.94,-142.35"/>
</a>
</g>
</g>
<!-- Node16 -->
<g id="Node000016" class="node">
<title>Node16</title>
<g id="a_Node000016"><a xlink:title=" ">
<polygon fill="#e0e0e0" stroke="#999999" points="698.38,-132 629.12,-132 629.12,-112 698.38,-112 698.38,-132"/>
<text xml:space="preserve" text-anchor="middle" x="663.75" y="-118.5" font-family="Helvetica,sans-Serif" font-size="10.00">esp_event.h</text>
</a>
</g>
</g>
<!-- Node1&#45;&gt;Node16 -->
<g id="edge25_Node000001_Node000016" class="edge">
<title>Node1&#45;&gt;Node16</title>
<g id="a_edge25_Node000001_Node000016"><a xlink:title=" ">
<path fill="none" stroke="#63b8ff" d="M546.48,-167.59C569.05,-159.01 602.66,-146.23 628.12,-136.55"/>
<polygon fill="#63b8ff" stroke="#63b8ff" points="629.3,-139.84 637.41,-133.02 626.82,-133.3 629.3,-139.84"/>
</a>
</g>
</g>
<!-- Node17 -->
<g id="Node000017" class="node">
<title>Node17</title>
<g id="a_Node000017"><a xlink:title=" ">
<polygon fill="#e0e0e0" stroke="#999999" points="810.75,-132 716.75,-132 716.75,-112 810.75,-112 810.75,-132"/>
<text xml:space="preserve" text-anchor="middle" x="763.75" y="-118.5" font-family="Helvetica,sans-Serif" font-size="10.00">esp_http_server.h</text>
</a>
</g>
</g>
<!-- Node1&#45;&gt;Node17 -->
<g id="edge26_Node000001_Node000017" class="edge">
<title>Node1&#45;&gt;Node17</title>
<g id="a_edge26_Node000001_Node000017"><a xlink:title=" ">
<path fill="none" stroke="#63b8ff" d="M564.18,-167.53C604.83,-158.46 666.33,-144.74 710.31,-134.93"/>
<polygon fill="#63b8ff" stroke="#63b8ff" points="710.89,-138.38 719.89,-132.79 709.37,-131.55 710.89,-138.38"/>
</a>
</g>
</g>
<!-- Node18 -->
<g id="Node000018" class="node">
<title>Node18</title>
<g id="a_Node000018"><a xlink:title=" ">
<polygon fill="#e0e0e0" stroke="#999999" points="892.75,-132 828.75,-132 828.75,-112 892.75,-112 892.75,-132"/>
<text xml:space="preserve" text-anchor="middle" x="860.75" y="-118.5" font-family="Helvetica,sans-Serif" font-size="10.00">esp_netif.h</text>
</a>
</g>
</g>
<!-- Node1&#45;&gt;Node18 -->
<g id="edge27_Node000001_Node000018" class="edge">
<title>Node1&#45;&gt;Node18</title>
<g id="a_edge27_Node000001_Node000018"><a xlink:title=" ">
<path fill="none" stroke="#63b8ff" d="M593.63,-167.51C651.47,-159.55 735.09,-147.36 817.25,-132.36"/>
<polygon fill="#63b8ff" stroke="#63b8ff" points="817.87,-135.81 827.07,-130.55 816.6,-128.92 817.87,-135.81"/>
</a>
</g>
</g>
<!-- Node19 -->
<g id="Node000019" class="node">
<title>Node19</title>
<g id="a_Node000019"><a xlink:title=" ">
<polygon fill="#e0e0e0" stroke="#999999" points="970.88,-132 910.62,-132 910.62,-112 970.88,-112 970.88,-132"/>
<text xml:space="preserve" text-anchor="middle" x="940.75" y="-118.5" font-family="Helvetica,sans-Serif" font-size="10.00">esp_wifi.h</text>
</a>
</g>
</g>
<!-- Node1&#45;&gt;Node19 -->
<g id="edge28_Node000001_Node000019" class="edge">
<title>Node1&#45;&gt;Node19</title>
<g id="a_edge28_Node000001_Node000019"><a xlink:title=" ">
<path fill="none" stroke="#63b8ff" d="M596.73,-170.55C671.15,-163.6 788.67,-151.15 899.15,-132.3"/>
<polygon fill="#63b8ff" stroke="#63b8ff" points="899.41,-135.8 908.67,-130.65 898.22,-128.91 899.41,-135.8"/>
</a>
</g>
</g>
<!-- Node20 -->
<g id="Node000020" class="node">
<title>Node20</title>
<g id="a_Node000020"><a xlink:title=" ">
<polygon fill="#e0e0e0" stroke="#999999" points="1054.88,-132 988.62,-132 988.62,-112 1054.88,-112 1054.88,-132"/>
<text xml:space="preserve" text-anchor="middle" x="1021.75" y="-118.5" font-family="Helvetica,sans-Serif" font-size="10.00">nvs_flash.h</text>
</a>
</g>
</g>
<!-- Node1&#45;&gt;Node20 -->
<g id="edge29_Node000001_Node000020" class="edge">
<title>Node1&#45;&gt;Node20</title>
<g id="a_edge29_Node000001_Node000020"><a xlink:title=" ">
<path fill="none" stroke="#63b8ff" d="M596.65,-172.25C685.21,-166.06 837.26,-153.58 977.02,-132.27"/>
<polygon fill="#63b8ff" stroke="#63b8ff" points="977.5,-135.73 986.85,-130.75 976.43,-128.82 977.5,-135.73"/>
</a>
</g>
</g>
<!-- Node3 -->
<g id="Node000003" class="node">
<title>Node3</title>
<g id="a_Node000003"><a xlink:title=" ">
<polygon fill="#e0e0e0" stroke="#999999" points="165,-76 108.5,-76 108.5,-56 165,-56 165,-76"/>
<text xml:space="preserve" text-anchor="middle" x="136.75" y="-62.5" font-family="Helvetica,sans-Serif" font-size="10.00">esp_err.h</text>
</a>
</g>
</g>
<!-- Node2&#45;&gt;Node3 -->
<g id="edge2_Node000002_Node000003" class="edge">
<title>Node2&#45;&gt;Node3</title>
<g id="a_edge2_Node000002_Node000003"><a xlink:title=" ">
<path fill="none" stroke="#63b8ff" d="M140.88,-111.59C140.27,-105.01 139.43,-95.96 138.67,-87.73"/>
<polygon fill="#63b8ff" stroke="#63b8ff" points="142.16,-87.44 137.75,-77.81 135.19,-88.09 142.16,-87.44"/>
</a>
</g>
</g>
<!-- Node4&#45;&gt;Node3 -->
<g id="edge5_Node000004_Node000003" class="edge">
<title>Node4&#45;&gt;Node3</title>
<g id="a_edge5_Node000004_Node000003"><a xlink:title=" ">
<path fill="none" stroke="#63b8ff" d="M60.78,-111.59C74.54,-103.51 94.65,-91.71 110.73,-82.27"/>
<polygon fill="#63b8ff" stroke="#63b8ff" points="112.44,-85.33 119.29,-77.25 108.9,-79.29 112.44,-85.33"/>
</a>
</g>
</g>
<!-- Node4&#45;&gt;Node5 -->
<g id="edge4_Node000004_Node000005" class="edge">
<title>Node4&#45;&gt;Node5</title>
<g id="a_edge4_Node000004_Node000005"><a xlink:title=" ">
<path fill="none" stroke="#63b8ff" d="M50.31,-111.65C59.11,-97.63 77.54,-71.18 99.75,-56 127.45,-37.06 163.89,-25.39 191.3,-18.7"/>
<polygon fill="#63b8ff" stroke="#63b8ff" points="192.01,-22.13 200.96,-16.47 190.43,-15.31 192.01,-22.13"/>
</a>
</g>
</g>
<!-- Node6&#45;&gt;Node3 -->
<g id="edge11_Node000006_Node000003" class="edge">
<title>Node6&#45;&gt;Node3</title>
<g id="a_edge11_Node000006_Node000003"><a xlink:title=" ">
<path fill="none" stroke="#63b8ff" d="M258.14,-111.59C234.68,-102.97 199.68,-90.12 173.28,-80.42"/>
<polygon fill="#63b8ff" stroke="#63b8ff" points="174.57,-77.16 163.98,-77 172.16,-83.73 174.57,-77.16"/>
</a>
</g>
</g>
<!-- Node6&#45;&gt;Node5 -->
<g id="edge7_Node000006_Node000005" class="edge">
<title>Node6&#45;&gt;Node5</title>
<g id="a_edge7_Node000006_Node000005"><a xlink:title=" ">
<path fill="none" stroke="#63b8ff" d="M276.9,-111.7C270.58,-102.84 261.23,-88.97 254.75,-76 247.43,-61.33 241.1,-43.86 236.78,-30.73"/>
<polygon fill="#63b8ff" stroke="#63b8ff" points="240.23,-30.01 233.87,-21.53 233.55,-32.12 240.23,-30.01"/>
</a>
</g>
</g>
<!-- Node7 -->
<g id="Node000007" class="node">
<title>Node7</title>
<g id="a_Node000007"><a xlink:title=" ">
<polygon fill="#e0e0e0" stroke="#999999" points="461.88,-20 413.62,-20 413.62,0 461.88,0 461.88,-20"/>
<text xml:space="preserve" text-anchor="middle" x="437.75" y="-6.5" font-family="Helvetica,sans-Serif" font-size="10.00">stdint.h</text>
</a>
</g>
</g>
<!-- Node6&#45;&gt;Node7 -->
<g id="edge8_Node000006_Node000007" class="edge">
<title>Node6&#45;&gt;Node7</title>
<g id="a_edge8_Node000006_Node000007"><a xlink:title=" ">
<path fill="none" stroke="#63b8ff" d="M287.67,-111.76C294,-97.87 307.69,-71.59 326.75,-56 348.88,-37.89 379.26,-26.26 402.64,-19.36"/>
<polygon fill="#63b8ff" stroke="#63b8ff" points="403.33,-22.8 412.03,-16.75 401.46,-16.06 403.33,-22.8"/>
</a>
</g>
</g>
<!-- Node8 -->
<g id="Node000008" class="node">
<title>Node8</title>
<g id="a_Node000008"><a xlink:href="operating__state_8h.html" target="_top" xlink:title=" ">
<polygon fill="white" stroke="#666666" points="426.25,-76 335.25,-76 335.25,-56 426.25,-56 426.25,-76"/>
<text xml:space="preserve" text-anchor="middle" x="380.75" y="-62.5" font-family="Helvetica,sans-Serif" font-size="10.00">operating_state.h</text>
</a>
</g>
</g>
<!-- Node6&#45;&gt;Node8 -->
<g id="edge9_Node000006_Node000008" class="edge">
<title>Node6&#45;&gt;Node8</title>
<g id="a_edge9_Node000006_Node000008"><a xlink:title=" ">
<path fill="none" stroke="#63b8ff" d="M300.65,-111.59C315.3,-103.44 336.77,-91.48 353.8,-82"/>
<polygon fill="#63b8ff" stroke="#63b8ff" points="355.36,-85.14 362.4,-77.22 351.96,-79.02 355.36,-85.14"/>
</a>
</g>
</g>
<!-- Node8&#45;&gt;Node7 -->
<g id="edge10_Node000008_Node000007" class="edge">
<title>Node8&#45;&gt;Node7</title>
<g id="a_edge10_Node000008_Node000007"><a xlink:title=" ">
<path fill="none" stroke="#63b8ff" d="M390.68,-55.59C398.69,-48.01 410.17,-37.13 419.78,-28.02"/>
<polygon fill="#63b8ff" stroke="#63b8ff" points="421.98,-30.76 426.84,-21.34 417.17,-25.68 421.98,-30.76"/>
</a>
</g>
</g>
<!-- Node9&#45;&gt;Node5 -->
<g id="edge13_Node000009_Node000005" class="edge">
<title>Node9&#45;&gt;Node5</title>
<g id="a_edge13_Node000009_Node000005"><a xlink:title=" ">
<path fill="none" stroke="#63b8ff" d="M367.96,-111.62C342.28,-92.79 284.18,-50.18 252.44,-26.91"/>
<polygon fill="#63b8ff" stroke="#63b8ff" points="254.86,-24.34 244.73,-21.25 250.72,-29.99 254.86,-24.34"/>
</a>
</g>
</g>
<!-- Node9&#45;&gt;Node7 -->
<g id="edge14_Node000009_Node000007" class="edge">
<title>Node9&#45;&gt;Node7</title>
<g id="a_edge14_Node000009_Node000007"><a xlink:title=" ">
<path fill="none" stroke="#63b8ff" d="M412.95,-113.8C415.92,-113.18 418.89,-112.57 421.75,-112 466.47,-103.11 594.47,-110.96 623.75,-76 666.14,-25.39 538.91,-14.15 473.71,-11.68"/>
<polygon fill="#63b8ff" stroke="#63b8ff" points="473.94,-8.18 463.83,-11.36 473.71,-15.18 473.94,-8.18"/>
</a>
</g>
</g>
<!-- Node9&#45;&gt;Node8 -->
<g id="edge16_Node000009_Node000008" class="edge">
<title>Node9&#45;&gt;Node8</title>
<g id="a_edge16_Node000009_Node000008"><a xlink:title=" ">
<path fill="none" stroke="#63b8ff" d="M380.75,-111.59C380.75,-105.01 380.75,-95.96 380.75,-87.73"/>
<polygon fill="#63b8ff" stroke="#63b8ff" points="384.25,-87.81 380.75,-77.81 377.25,-87.81 384.25,-87.81"/>
</a>
</g>
</g>
<!-- Node10 -->
<g id="Node000010" class="node">
<title>Node10</title>
<g id="a_Node000010"><a xlink:title=" ">
<polygon fill="#e0e0e0" stroke="#999999" points="614.38,-76 563.12,-76 563.12,-56 614.38,-56 614.38,-76"/>
<text xml:space="preserve" text-anchor="middle" x="588.75" y="-62.5" font-family="Helvetica,sans-Serif" font-size="10.00">stddef.h</text>
</a>
</g>
</g>
<!-- Node9&#45;&gt;Node10 -->
<g id="edge15_Node000009_Node000010" class="edge">
<title>Node9&#45;&gt;Node10</title>
<g id="a_edge15_Node000009_Node000010"><a xlink:title=" ">
<path fill="none" stroke="#63b8ff" d="M413.15,-112.68C445.86,-104.27 498.1,-90.79 551.68,-76.79"/>
<polygon fill="#63b8ff" stroke="#63b8ff" points="552.51,-80.19 561.3,-74.28 550.74,-73.42 552.51,-80.19"/>
</a>
</g>
</g>
<!-- Node11 -->
<g id="Node000011" class="node">
<title>Node11</title>
<g id="a_Node000011"><a xlink:href="anomaly__detector_8h.html" target="_top" xlink:title=" ">
<polygon fill="white" stroke="#666666" points="545.5,-76 444,-76 444,-56 545.5,-56 545.5,-76"/>
<text xml:space="preserve" text-anchor="middle" x="494.75" y="-62.5" font-family="Helvetica,sans-Serif" font-size="10.00">anomaly_detector.h</text>
</a>
</g>
</g>
<!-- Node9&#45;&gt;Node11 -->
<g id="edge17_Node000009_Node000011" class="edge">
<title>Node9&#45;&gt;Node11</title>
<g id="a_edge17_Node000009_Node000011"><a xlink:title=" ">
<path fill="none" stroke="#63b8ff" d="M400.61,-111.59C418.24,-103.24 444.26,-90.92 464.48,-81.34"/>
<polygon fill="#63b8ff" stroke="#63b8ff" points="465.83,-84.57 473.37,-77.13 462.83,-78.25 465.83,-84.57"/>
</a>
</g>
</g>
<!-- Node11&#45;&gt;Node5 -->
<g id="edge18_Node000011_Node000005" class="edge">
<title>Node11&#45;&gt;Node5</title>
<g id="a_edge18_Node000011_Node000005"><a xlink:title=" ">
<path fill="none" stroke="#63b8ff" d="M448.46,-55.53C397.92,-45.19 317.82,-28.81 270.17,-19.06"/>
<polygon fill="#63b8ff" stroke="#63b8ff" points="271.06,-15.67 260.56,-17.1 269.65,-22.53 271.06,-15.67"/>
</a>
</g>
</g>
<!-- Node11&#45;&gt;Node7 -->
<g id="edge19_Node000011_Node000007" class="edge">
<title>Node11&#45;&gt;Node7</title>
<g id="a_edge19_Node000011_Node000007"><a xlink:title=" ">
<path fill="none" stroke="#63b8ff" d="M484.82,-55.59C476.81,-48.01 465.33,-37.13 455.72,-28.02"/>
<polygon fill="#63b8ff" stroke="#63b8ff" points="458.33,-25.68 448.66,-21.34 453.52,-30.76 458.33,-25.68"/>
</a>
</g>
</g>
<!-- Node13 -->
<g id="Node000013" class="node">
<title>Node13</title>
<g id="a_Node000013"><a xlink:title=" ">
<polygon fill="#e0e0e0" stroke="#999999" points="728.75,-76 670.75,-76 670.75,-56 728.75,-56 728.75,-76"/>
<text xml:space="preserve" text-anchor="middle" x="699.75" y="-62.5" font-family="Helvetica,sans-Serif" font-size="10.00">esp_log.h</text>
</a>
</g>
</g>
<!-- Node12&#45;&gt;Node13 -->
<g id="edge21_Node000012_Node000013" class="edge">
<title>Node12&#45;&gt;Node13</title>
<g id="a_edge21_Node000012_Node000013"><a xlink:title=" ">
<path fill="none" stroke="#63b8ff" d="M481.34,-114.09C484.17,-113.36 487.02,-112.65 489.75,-112 506.08,-108.09 603.36,-87.41 659.62,-75.49"/>
<polygon fill="#63b8ff" stroke="#63b8ff" points="660.08,-78.97 669.14,-73.48 658.63,-72.12 660.08,-78.97"/>
</a>
</g>
</g>
</g>
</svg>

<g id="navigator" transform="translate(0 0)" fill="#404254">
  <rect fill="#f2f5e9" fill-opacity="0.5" stroke="#606060" stroke-width=".5" x="0" y="0" width="60" height="60"/>
  <use id="zoomplus" xlink:href="#zoomPlus" x="17" y="9" onmousedown="handleZoom(evt,'in')"/>
  <use id="zoomminus" xlink:href="#zoomMin" x="42" y="9" onmousedown="handleZoom(evt,'out')"/>
  <use id="reset" xlink:href="#resetDef" x="30" y="36" onmousedown="handleReset()"/>
   <use id="arrowup" xlink:href="#arrowUp" x="0" y="0" onmousedown="handlePan(0,-1)"/>
  <use id="arrowright" xlink:href="#arrowRight" x="0" y="0" onmousedown="handlePan(1,0)"/>
  <use id="arrowdown" xlink:href="#arrowDown" x="0" y="0" onmousedown="handlePan(0,1)"/>
  <use id="arrowleft" xlink:href="#arrowLeft" x="0" y="0" onmousedown="handlePan(-1,0)"/>
</g>
<svg viewBox="0 0 15 15" width="100%" height="30px" preserveAspectRatio="xMaxYMin meet">
 <g id="arrow_out" transform="scale(0.3 0.3)">
  <a xlink:href="dashboard_8c__incl_org.svg" target="_base">
   <rect id="button" ry="5" rx="5" y="6" x="6" height="38" width="38"
        fill="#f2f5e9" fill-opacity="0.5" stroke="#606060" stroke-width="1.0"/>
   <path id="arrow"
     d="M 11.500037,31.436501 C 11.940474,20.09759 22.043105,11.32322 32.158766,21.979434 L 37.068811,17.246167 C 37.068811,17.246167 37.088388,32 37.088388,32 L 22.160133,31.978069 C 22.160133,31.978069 26.997745,27.140456 26.997745,27.140456 C 18.528582,18.264221 13.291696,25.230495 11.500037,31.436501 z"
     style="fill:#404040;"/>
  </a>
 </g>
</svg>

<style type='text/css'>
<![CDATA[
[data-mouse-over-selected='false'] { opacity: 0.7; }
[data-mouse-over-selected='true']  { opacity: 1.0; }
]]>
</style>
<script type="application/ecmascript"><![CDATA[
document.addEventListener('DOMContentLoaded', (event) => {
  highlightEdges();
  highlightAdjacentNodes();
});
]]></script>
</svg>
