<?xml version="1.0" encoding="UTF-8" standalone="no"?>
<!DOCTYPE svg PUBLIC "-//W3C//DTD SVG 1.1//EN"
 "http://www.w3.org/Graphics/SVG/1.1/DTD/svg11.dtd">
<!-- Generated by graphviz version 15.1.1 (20260805.0921)
 -->
<!-- Title: firmware/utils/logger/logger.h Pages: 1 -->
<svg width="1160pt" height="108pt"
 viewBox="0.00 0.00 1160.00 108.00" xmlns="http://www.w3.org/2000/svg" xmlns:xlink="http://www.w3.org/1999/xlink">
<g id="graph0" class="graph" transform="scale(1 1) rotate(0) translate(4 104)">
<title>firmware/utils/logger/logger.h</title>
<!-- Node1 -->
<g id="Node000001" class="node">
<title>Node1</title>
<g id="a_Node000001"><a xlink:title=" ">
<polygon fill="#999999" stroke="#666666" points="583.5,-100 479.75,-100 479.75,-68 583.5,-68 583.5,-100"/>
<text xml:space="preserve" text-anchor="start" x="487.75" y="-86.5" font-family="Helvetica,sans-Serif" font-size="10.00">firmware/utils/logger</text>
<text xml:space="preserve" text-anchor="middle" x="531.62" y="-74.5" font-family="Helvetica,sans-Serif" font-size="10.00">/logger.h</text>
</a>
</g>
</g>
<!-- Node2 -->
<g id="Node000002" class="node">
<title>Node2</title>
<g id="a_Node000002"><a xlink:href="app_8c.html" target="_top" xlink:title=" ">
<polygon fill="white" stroke="#666666" points="99.25,-26 0,-26 0,-6 99.25,-6 99.25,-26"/>
<text xml:space="preserve" text-anchor="middle" x="49.62" y="-12.5" font-family="Helvetica,sans-Serif" font-size="10.00">firmware/app/app.c</text>
</a>
</g>
</g>
<!-- Node1&#45;&gt;Node2 -->
<g id="edge1_Node000001_Node000002" class="edge">
<title>Node1&#45;&gt;Node2</title>
<g id="a_edge1_Node000001_Node000002"><a xlink:title=" ">
<path fill="none" stroke="#63b8ff" d="M468.26,-77.93C385.2,-70.7 235.19,-55.62 108.62,-32 100.52,-30.49 91.88,-28.5 83.78,-26.48"/>
<polygon fill="#63b8ff" stroke="#63b8ff" points="467.76,-81.4 478.02,-78.77 468.36,-74.42 467.76,-81.4"/>
</a>
</g>
</g>
<!-- Node3 -->
<g id="Node000003" class="node">
<title>Node3</title>
<g id="a_Node000003"><a xlink:href="led__platform_8c.html" target="_top" xlink:title=" ">
<polygon fill="white" stroke="#666666" points="227.5,-32 117.75,-32 117.75,0 227.5,0 227.5,-32"/>
<text xml:space="preserve" text-anchor="start" x="125.75" y="-18.5" font-family="Helvetica,sans-Serif" font-size="10.00">firmware/platforms</text>
<text xml:space="preserve" text-anchor="middle" x="172.62" y="-6.5" font-family="Helvetica,sans-Serif" font-size="10.00">/esp32/led_platform.c</text>
</a>
</g>
</g>
<!-- Node1&#45;&gt;Node3 -->
<g id="edge2_Node000001_Node000003" class="edge">
<title>Node1&#45;&gt;Node3</title>
<g id="a_edge2_Node000001_Node000003"><a xlink:title=" ">
<path fill="none" stroke="#63b8ff" d="M468.33,-73.17C408.46,-63.6 316.17,-48.18 236.62,-32 233.72,-31.41 230.74,-30.78 227.74,-30.13"/>
<polygon fill="#63b8ff" stroke="#63b8ff" points="467.57,-76.59 478,-74.7 468.67,-69.68 467.57,-76.59"/>
</a>
</g>
</g>
<!-- Node4 -->
<g id="Node000004" class="node">
<title>Node4</title>
<g id="a_Node000004"><a xlink:href="sensor__platform_8c.html" target="_top" xlink:title=" ">
<polygon fill="white" stroke="#666666" points="371.75,-32 245.5,-32 245.5,0 371.75,0 371.75,-32"/>
<text xml:space="preserve" text-anchor="start" x="253.5" y="-18.5" font-family="Helvetica,sans-Serif" font-size="10.00">firmware/platforms</text>
<text xml:space="preserve" text-anchor="middle" x="308.62" y="-6.5" font-family="Helvetica,sans-Serif" font-size="10.00">/esp32/sensor_platform.c</text>
</a>
</g>
</g>
<!-- Node1&#45;&gt;Node4 -->
<g id="edge3_Node000001_Node000004" class="edge">
<title>Node1&#45;&gt;Node4</title>
<g id="a_edge3_Node000001_Node000004"><a xlink:title=" ">
<path fill="none" stroke="#63b8ff" d="M468.59,-64.34C434.6,-54.28 393.16,-42.02 360.97,-32.49"/>
<polygon fill="#63b8ff" stroke="#63b8ff" points="467.31,-67.61 477.89,-67.1 469.29,-60.9 467.31,-67.61"/>
</a>
</g>
</g>
<!-- Node5 -->
<g id="Node000005" class="node">
<title>Node5</title>
<g id="a_Node000005"><a xlink:href="anomaly__detector_8c.html" target="_top" xlink:title=" ">
<polygon fill="white" stroke="#666666" points="523.12,-32 390.12,-32 390.12,0 523.12,0 523.12,-32"/>
<text xml:space="preserve" text-anchor="start" x="398.12" y="-18.5" font-family="Helvetica,sans-Serif" font-size="10.00">firmware/services/anomaly</text>
<text xml:space="preserve" text-anchor="middle" x="456.62" y="-6.5" font-family="Helvetica,sans-Serif" font-size="10.00">_detector.c</text>
</a>
</g>
</g>
<!-- Node1&#45;&gt;Node5 -->
<g id="edge4_Node000001_Node000005" class="edge">
<title>Node1&#45;&gt;Node5</title>
<g id="a_edge4_Node000001_Node000005"><a xlink:title=" ">
<path fill="none" stroke="#63b8ff" d="M505.85,-60.32C495.41,-51.13 483.61,-40.75 474.19,-32.45"/>
<polygon fill="#63b8ff" stroke="#63b8ff" points="503.27,-62.71 513.09,-66.69 507.9,-57.46 503.27,-62.71"/>
</a>
</g>
</g>
<!-- Node6 -->
<g id="Node000006" class="node">
<title>Node6</title>
<g id="a_Node000006"><a xlink:href="baseline__learner_8c.html" target="_top" xlink:title=" ">
<polygon fill="white" stroke="#666666" points="673.75,-32 541.5,-32 541.5,0 673.75,0 673.75,-32"/>
<text xml:space="preserve" text-anchor="start" x="549.5" y="-18.5" font-family="Helvetica,sans-Serif" font-size="10.00">firmware/services/baseline</text>
<text xml:space="preserve" text-anchor="middle" x="607.62" y="-6.5" font-family="Helvetica,sans-Serif" font-size="10.00">_learner.c</text>
</a>
</g>
</g>
<!-- Node1&#45;&gt;Node6 -->
<g id="edge5_Node000001_Node000006" class="edge">
<title>Node1&#45;&gt;Node6</title>
<g id="a_edge5_Node000001_Node000006"><a xlink:title=" ">
<path fill="none" stroke="#63b8ff" d="M557.74,-60.32C568.32,-51.13 580.28,-40.75 589.83,-32.45"/>
<polygon fill="#63b8ff" stroke="#63b8ff" points="555.65,-57.5 550.39,-66.7 560.24,-62.79 555.65,-57.5"/>
</a>
</g>
</g>
<!-- Node7 -->
<g id="Node000007" class="node">
<title>Node7</title>
<g id="a_Node000007"><a xlink:href="commissioning_8c.html" target="_top" xlink:title=" ">
<polygon fill="white" stroke="#666666" points="861.5,-26 691.75,-26 691.75,-6 861.5,-6 861.5,-26"/>
<text xml:space="preserve" text-anchor="middle" x="776.62" y="-12.5" font-family="Helvetica,sans-Serif" font-size="10.00">firmware/services/commissioning.c</text>
</a>
</g>
</g>
<!-- Node1&#45;&gt;Node7 -->
<g id="edge6_Node000001_Node000007" class="edge">
<title>Node1&#45;&gt;Node7</title>
<g id="a_edge6_Node000001_Node000007"><a xlink:title=" ">
<path fill="none" stroke="#63b8ff" d="M594.79,-65.98C641.44,-53.42 703.23,-36.77 741.43,-26.48"/>
<polygon fill="#63b8ff" stroke="#63b8ff" points="594.09,-62.55 585.34,-68.53 595.91,-69.31 594.09,-62.55"/>
</a>
</g>
</g>
<!-- Node8 -->
<g id="Node000008" class="node">
<title>Node8</title>
<g id="a_Node000008"><a xlink:href="dashboard_8c.html" target="_top" xlink:title=" ">
<polygon fill="white" stroke="#666666" points="1029.38,-26 879.88,-26 879.88,-6 1029.38,-6 1029.38,-26"/>
<text xml:space="preserve" text-anchor="middle" x="954.62" y="-12.5" font-family="Helvetica,sans-Serif" font-size="10.00">firmware/services/dashboard.c</text>
</a>
</g>
</g>
<!-- Node1&#45;&gt;Node8 -->
<g id="edge7_Node000001_Node000008" class="edge">
<title>Node1&#45;&gt;Node8</title>
<g id="a_edge7_Node000001_Node000008"><a xlink:title=" ">
<path fill="none" stroke="#63b8ff" d="M595.35,-73.94C663.55,-64.13 774.86,-47.75 870.62,-32 881.15,-30.27 892.4,-28.33 903.13,-26.43"/>
<polygon fill="#63b8ff" stroke="#63b8ff" points="594.86,-70.48 585.46,-75.36 595.86,-77.41 594.86,-70.48"/>
</a>
</g>
</g>
<!-- Node9 -->
<g id="Node000009" class="node">
<title>Node9</title>
<g id="a_Node000009"><a xlink:href="logger_8c.html" target="_top" xlink:title=" ">
<polygon fill="white" stroke="#666666" points="1151.5,-32 1047.75,-32 1047.75,0 1151.5,0 1151.5,-32"/>
<text xml:space="preserve" text-anchor="start" x="1055.75" y="-18.5" font-family="Helvetica,sans-Serif" font-size="10.00">firmware/utils/logger</text>
<text xml:space="preserve" text-anchor="middle" x="1099.62" y="-6.5" font-family="Helvetica,sans-Serif" font-size="10.00">/logger.c</text>
</a>
</g>
</g>
<!-- Node1&#45;&gt;Node9 -->
<g id="edge8_Node000001_Node000009" class="edge">
<title>Node1&#45;&gt;Node9</title>
<g id="a_edge8_Node000001_Node000009"><a xlink:title=" ">
<path fill="none" stroke="#63b8ff" d="M595.06,-79.5C691.44,-73.53 880.29,-59.29 1038.62,-32 1041.53,-31.5 1044.49,-30.94 1047.48,-30.33"/>
<polygon fill="#63b8ff" stroke="#63b8ff" points="595.05,-75.99 585.28,-80.09 595.48,-82.98 595.05,-75.99"/>
</a>
</g>
</g>
</g>
</svg>
