<?xml version="1.0" encoding="UTF-8" standalone="no"?>
<!DOCTYPE svg PUBLIC "-//W3C//DTD SVG 1.1//EN"
 "http://www.w3.org/Graphics/SVG/1.1/DTD/svg11.dtd">
<!-- Generated by graphviz version 15.1.1 (20260805.0921)
 -->
<!-- Title: add_device Pages: 1 -->
<svg width="476pt" height="66pt"
 viewBox="0.00 0.00 476.00 66.00" xmlns="http://www.w3.org/2000/svg" xmlns:xlink="http://www.w3.org/1999/xlink">
<g id="graph0" class="graph" transform="scale(1 1) rotate(0) translate(4 62)">
<title>add_device</title>
<!-- Node1 -->
<g id="Node000001" class="node">
<title>Node1</title>
<g id="a_Node000001"><a xlink:title=" ">
<polygon fill="#999999" stroke="#666666" points="468.25,-39 402.75,-39 402.75,-19 468.25,-19 468.25,-39"/>
<text xml:space="preserve" text-anchor="middle" x="435.5" y="-25.5" font-family="Helvetica,sans-Serif" font-size="10.00">add_device</text>
</a>
</g>
</g>
<!-- Node2 -->
<g id="Node000002" class="node">
<title>Node2</title>
<g id="a_Node000002"><a xlink:href="sensor__platform_8c.html#a2670b1257cae0f44d5fbdd2237ab4602" target="_top" xlink:title=" ">
<polygon fill="white" stroke="#666666" points="362.62,-58 285.12,-58 285.12,-38 362.62,-38 362.62,-58"/>
<text xml:space="preserve" text-anchor="middle" x="323.88" y="-44.5" font-family="Helvetica,sans-Serif" font-size="10.00">detect_motion</text>
</a>
</g>
</g>
<!-- Node1&#45;&gt;Node2 -->
<g id="edge1_Node000001_Node000002" class="edge">
<title>Node1&#45;&gt;Node2</title>
<g id="a_edge1_Node000001_Node000002"><a xlink:title=" ">
<path fill="none" stroke="#63b8ff" d="M391.36,-36.48C381.97,-38.1 372.1,-39.81 362.93,-41.41"/>
<polygon fill="#63b8ff" stroke="#63b8ff" points="391.75,-39.96 401.01,-34.81 390.56,-33.06 391.75,-39.96"/>
</a>
</g>
</g>
<!-- Node6 -->
<g id="Node000006" class="node">
<title>Node6</title>
<g id="a_Node000006"><a xlink:href="sensor__platform_8c.html#a43f98340c43e43546d62c87e9d7ce475" target="_top" xlink:title=" ">
<polygon fill="white" stroke="#666666" points="366.75,-20 281,-20 281,0 366.75,0 366.75,-20"/>
<text xml:space="preserve" text-anchor="middle" x="323.88" y="-6.5" font-family="Helvetica,sans-Serif" font-size="10.00">detect_pressure</text>
</a>
</g>
</g>
<!-- Node1&#45;&gt;Node6 -->
<g id="edge5_Node000001_Node000006" class="edge">
<title>Node1&#45;&gt;Node6</title>
<g id="a_edge5_Node000001_Node000006"><a xlink:title=" ">
<path fill="none" stroke="#63b8ff" d="M391.42,-21.53C383.36,-20.14 374.94,-18.68 366.92,-17.29"/>
<polygon fill="#63b8ff" stroke="#63b8ff" points="390.56,-24.94 401.01,-23.19 391.75,-18.04 390.56,-24.94"/>
</a>
</g>
</g>
<!-- Node3 -->
<g id="Node000003" class="node">
<title>Node3</title>
<g id="a_Node000003"><a xlink:href="sensor__platform_8c.html#a92b60dc0e89a321c99fe236b698adceb" target="_top" xlink:title=" ">
<polygon fill="white" stroke="#666666" points="245,-39 141.25,-39 141.25,-19 245,-19 245,-39"/>
<text xml:space="preserve" text-anchor="middle" x="193.12" y="-25.5" font-family="Helvetica,sans-Serif" font-size="10.00">sensor_platform_init</text>
</a>
</g>
</g>
<!-- Node2&#45;&gt;Node3 -->
<g id="edge2_Node000002_Node000003" class="edge">
<title>Node2&#45;&gt;Node3</title>
<g id="a_edge2_Node000002_Node000003"><a xlink:title=" ">
<path fill="none" stroke="#63b8ff" d="M273.79,-40.76C264.42,-39.37 254.58,-37.92 245.15,-36.53"/>
<polygon fill="#63b8ff" stroke="#63b8ff" points="273.04,-44.18 283.44,-42.18 274.06,-37.26 273.04,-44.18"/>
</a>
</g>
</g>
<!-- Node4 -->
<g id="Node000004" class="node">
<title>Node4</title>
<g id="a_Node000004"><a xlink:href="app_8c.html#af0c94d79193624994df85c52e2e30ca4" target="_top" xlink:title=" ">
<polygon fill="white" stroke="#666666" points="80.88,-58 24.38,-58 24.38,-38 80.88,-38 80.88,-58"/>
<text xml:space="preserve" text-anchor="middle" x="52.62" y="-44.5" font-family="Helvetica,sans-Serif" font-size="10.00">app_start</text>
</a>
</g>
</g>
<!-- Node3&#45;&gt;Node4 -->
<g id="edge3_Node000003_Node000004" class="edge">
<title>Node3&#45;&gt;Node4</title>
<g id="a_edge3_Node000003_Node000004"><a xlink:title=" ">
<path fill="none" stroke="#63b8ff" d="M129.89,-37.54C112.88,-39.87 95.3,-42.28 81.31,-44.2"/>
<polygon fill="#63b8ff" stroke="#63b8ff" points="130.02,-41.05 139.45,-36.23 129.06,-34.12 130.02,-41.05"/>
</a>
</g>
</g>
<!-- Node5 -->
<g id="Node000005" class="node">
<title>Node5</title>
<g id="a_Node000005"><a xlink:href="sensor__platform_8c.html#a9d34d7e2d25a3921a019630fb037b9b9" target="_top" xlink:title=" ">
<polygon fill="white" stroke="#666666" points="105.25,-20 0,-20 0,0 105.25,0 105.25,-20"/>
<text xml:space="preserve" text-anchor="middle" x="52.62" y="-6.5" font-family="Helvetica,sans-Serif" font-size="10.00">vibration_source_init</text>
</a>
</g>
</g>
<!-- Node3&#45;&gt;Node5 -->
<g id="edge4_Node000003_Node000005" class="edge">
<title>Node3&#45;&gt;Node5</title>
<g id="a_edge4_Node000003_Node000005"><a xlink:title=" ">
<path fill="none" stroke="#63b8ff" d="M129.66,-20.43C121.59,-19.32 113.4,-18.2 105.52,-17.12"/>
<polygon fill="#63b8ff" stroke="#63b8ff" points="129.06,-23.88 139.45,-21.77 130.02,-16.95 129.06,-23.88"/>
</a>
</g>
</g>
<!-- Node6&#45;&gt;Node3 -->
<g id="edge6_Node000006_Node000003" class="edge">
<title>Node6&#45;&gt;Node3</title>
<g id="a_edge6_Node000006_Node000003"><a xlink:title=" ">
<path fill="none" stroke="#63b8ff" d="M269.6,-17.86C261.58,-19.04 253.33,-20.26 245.36,-21.44"/>
<polygon fill="#63b8ff" stroke="#63b8ff" points="269.84,-21.36 279.22,-16.44 268.82,-14.44 269.84,-21.36"/>
</a>
</g>
</g>
</g>
</svg>
