<?xml version="1.0" encoding="UTF-8" standalone="no"?>
<!DOCTYPE svg PUBLIC "-//W3C//DTD SVG 1.1//EN"
 "http://www.w3.org/Graphics/SVG/1.1/DTD/svg11.dtd">
<!-- Generated by graphviz version 15.1.1 (20260805.0921)
 -->
<!-- Title: sensor_platform_start Pages: 1 -->
<svg width="701pt" height="546pt"
 viewBox="0.00 0.00 701.00 546.00" xmlns="http://www.w3.org/2000/svg" xmlns:xlink="http://www.w3.org/1999/xlink">
<g id="graph0" class="graph" transform="scale(1 1) rotate(0) translate(4 542)">
<title>sensor_platform_start</title>
<!-- Node1 -->
<g id="Node000001" class="node">
<title>Node1</title>
<g id="a_Node000001"><a xlink:title=" ">
<polygon fill="#999999" stroke="#666666" points="110.5,-248 0,-248 0,-228 110.5,-228 110.5,-248"/>
<text xml:space="preserve" text-anchor="middle" x="55.25" y="-234.5" font-family="Helvetica,sans-Serif" font-size="10.00">sensor_platform_start</text>
</a>
</g>
</g>
<!-- Node2 -->
<g id="Node000002" class="node">
<title>Node2</title>
<g id="a_Node000002"><a xlink:href="sensor__platform_8c.html#a63cdfab3bfe8a0b63913aeab946d5ffd" target="_top" xlink:title=" ">
<polygon fill="white" stroke="#666666" points="237.88,-267 168.62,-267 168.62,-247 237.88,-247 237.88,-267"/>
<text xml:space="preserve" text-anchor="middle" x="203.25" y="-253.5" font-family="Helvetica,sans-Serif" font-size="10.00">sensor_task</text>
</a>
</g>
</g>
<!-- Node1&#45;&gt;Node2 -->
<g id="edge1_Node000001_Node000002" class="edge">
<title>Node1&#45;&gt;Node2</title>
<g id="a_edge1_Node000001_Node000002"><a xlink:title=" ">
<path fill="none" stroke="#63b8ff" d="M110.62,-245.07C125.84,-247.06 142.22,-249.19 156.87,-251.09"/>
<polygon fill="#63b8ff" stroke="#63b8ff" points="156.32,-254.55 166.69,-252.37 157.22,-247.61 156.32,-254.55"/>
</a>
</g>
</g>
<!-- Node22 -->
<g id="Node000022" class="node">
<title>Node22</title>
<g id="a_Node000022"><a xlink:href="sensor__platform_8c.html#a2d9bb7c9404fb4a095208f6711942caf" target="_top" xlink:title=" ">
<polygon fill="white" stroke="#666666" points="260,-229 146.5,-229 146.5,-209 260,-209 260,-229"/>
<text xml:space="preserve" text-anchor="middle" x="203.25" y="-215.5" font-family="Helvetica,sans-Serif" font-size="10.00">sensor_timer_callback</text>
</a>
</g>
</g>
<!-- Node1&#45;&gt;Node22 -->
<g id="edge22_Node000001_Node000022" class="edge">
<title>Node1&#45;&gt;Node22</title>
<g id="a_edge22_Node000001_Node000022"><a xlink:title=" ">
<path fill="none" stroke="#63b8ff" d="M110.62,-230.93C118.64,-229.88 126.99,-228.79 135.24,-227.72"/>
<polygon fill="#63b8ff" stroke="#63b8ff" points="135.41,-231.23 144.88,-226.47 134.51,-224.29 135.41,-231.23"/>
</a>
</g>
</g>
<!-- Node3 -->
<g id="Node000003" class="node">
<title>Node3</title>
<g id="a_Node000003"><a xlink:href="anomaly__detector_8c.html#aa228e9e4dc9cfce872d60a1cc95eb4d8" target="_top" xlink:title=" ">
<polygon fill="white" stroke="#666666" points="415.5,-538 304.25,-538 304.25,-518 415.5,-518 415.5,-538"/>
<text xml:space="preserve" text-anchor="middle" x="359.88" y="-524.5" font-family="Helvetica,sans-Serif" font-size="10.00">anomaly_detector_init</text>
</a>
</g>
</g>
<!-- Node2&#45;&gt;Node3 -->
<g id="edge2_Node000002_Node000003" class="edge">
<title>Node2&#45;&gt;Node3</title>
<g id="a_edge2_Node000002_Node000003"><a xlink:title=" ">
<path fill="none" stroke="#63b8ff" d="M204.84,-267.4C207.57,-305.55 222.26,-439.26 296,-509 296.91,-509.86 297.86,-510.68 298.84,-511.47"/>
<polygon fill="#63b8ff" stroke="#63b8ff" points="296.84,-514.35 307.16,-516.77 300.61,-508.44 296.84,-514.35"/>
</a>
</g>
</g>
<!-- Node4 -->
<g id="Node000004" class="node">
<title>Node4</title>
<g id="a_Node000004"><a xlink:href="anomaly__detector_8c.html#a6a824e20a2a231ab81b000be9819d3a0" target="_top" xlink:title=" ">
<polygon fill="white" stroke="#666666" points="421.12,-500 298.62,-500 298.62,-480 421.12,-480 421.12,-500"/>
<text xml:space="preserve" text-anchor="middle" x="359.88" y="-486.5" font-family="Helvetica,sans-Serif" font-size="10.00">anomaly_detector_name</text>
</a>
</g>
</g>
<!-- Node2&#45;&gt;Node4 -->
<g id="edge3_Node000002_Node000004" class="edge">
<title>Node2&#45;&gt;Node4</title>
<g id="a_edge3_Node000002_Node000004"><a xlink:title=" ">
<path fill="none" stroke="#63b8ff" d="M205.57,-267.25C210.53,-301.5 231.21,-413.07 296,-471 297.08,-471.96 298.2,-472.88 299.36,-473.74"/>
<polygon fill="#63b8ff" stroke="#63b8ff" points="297.28,-476.57 307.65,-478.74 300.89,-470.58 297.28,-476.57"/>
</a>
</g>
</g>
<!-- Node5 -->
<g id="Node000005" class="node">
<title>Node5</title>
<g id="a_Node000005"><a xlink:href="anomaly__detector_8c.html#ac0f9ee7b375a914e9e8ccc7cddbfd605" target="_top" xlink:title=" ">
<polygon fill="white" stroke="#666666" points="423.75,-462 296,-462 296,-442 423.75,-442 423.75,-462"/>
<text xml:space="preserve" text-anchor="middle" x="359.88" y="-448.5" font-family="Helvetica,sans-Serif" font-size="10.00">anomaly_detector_update</text>
</a>
</g>
</g>
<!-- Node2&#45;&gt;Node5 -->
<g id="edge4_Node000002_Node000005" class="edge">
<title>Node2&#45;&gt;Node5</title>
<g id="a_edge4_Node000002_Node000005"><a xlink:title=" ">
<path fill="none" stroke="#63b8ff" d="M206.57,-267.1C213.99,-297.13 240.01,-386.62 296,-433 297.29,-434.07 298.64,-435.08 300.04,-436.03"/>
<polygon fill="#63b8ff" stroke="#63b8ff" points="298.08,-438.94 308.51,-440.78 301.5,-432.84 298.08,-438.94"/>
</a>
</g>
</g>
<!-- Node8 -->
<g id="Node000008" class="node">
<title>Node8</title>
<g id="a_Node000008"><a xlink:href="baseline__learner_8c.html#a9319a53c953e0d3bfc9be35ed3bee4bd" target="_top" xlink:title=" ">
<polygon fill="white" stroke="#666666" points="412.12,-424 307.62,-424 307.62,-404 412.12,-404 412.12,-424"/>
<text xml:space="preserve" text-anchor="middle" x="359.88" y="-410.5" font-family="Helvetica,sans-Serif" font-size="10.00">baseline_learner_init</text>
</a>
</g>
</g>
<!-- Node2&#45;&gt;Node8 -->
<g id="edge7_Node000002_Node000008" class="edge">
<title>Node2&#45;&gt;Node8</title>
<g id="a_edge7_Node000002_Node000008"><a xlink:title=" ">
<path fill="none" stroke="#63b8ff" d="M208.24,-267.44C218.6,-293.15 248.88,-360.01 296,-395 297.75,-396.3 299.59,-397.51 301.5,-398.64"/>
<polygon fill="#63b8ff" stroke="#63b8ff" points="299.61,-401.61 310.12,-402.95 302.74,-395.35 299.61,-401.61"/>
</a>
</g>
</g>
<!-- Node11 -->
<g id="Node000011" class="node">
<title>Node11</title>
<g id="a_Node000011"><a xlink:href="baseline__learner_8c.html#a1c2896cc55641f02e61601060acf8d58" target="_top" xlink:title=" ">
<polygon fill="white" stroke="#666666" points="409.5,-386 310.25,-386 310.25,-354 409.5,-354 409.5,-386"/>
<text xml:space="preserve" text-anchor="start" x="318.25" y="-372.5" font-family="Helvetica,sans-Serif" font-size="10.00">baseline_learner_is</text>
<text xml:space="preserve" text-anchor="middle" x="359.88" y="-360.5" font-family="Helvetica,sans-Serif" font-size="10.00">_learning</text>
</a>
</g>
</g>
<!-- Node2&#45;&gt;Node11 -->
<g id="edge10_Node000002_Node000011" class="edge">
<title>Node2&#45;&gt;Node11</title>
<g id="a_edge10_Node000002_Node000011"><a xlink:title=" ">
<path fill="none" stroke="#63b8ff" d="M212.6,-267.29C227.63,-285.22 260.91,-322.44 296,-345 297.82,-346.17 299.69,-347.3 301.62,-348.39"/>
<polygon fill="#63b8ff" stroke="#63b8ff" points="299.69,-351.33 310.18,-352.81 302.9,-345.11 299.69,-351.33"/>
</a>
</g>
</g>
<!-- Node12 -->
<g id="Node000012" class="node">
<title>Node12</title>
<g id="a_Node000012"><a xlink:href="baseline__learner_8c.html#ac227edd4d14592e8a1df784d73d80d89" target="_top" xlink:title=" ">
<polygon fill="white" stroke="#666666" points="409.5,-336 310.25,-336 310.25,-304 409.5,-304 409.5,-336"/>
<text xml:space="preserve" text-anchor="start" x="318.25" y="-322.5" font-family="Helvetica,sans-Serif" font-size="10.00">baseline_learner_is</text>
<text xml:space="preserve" text-anchor="middle" x="359.88" y="-310.5" font-family="Helvetica,sans-Serif" font-size="10.00">_valid</text>
</a>
</g>
</g>
<!-- Node2&#45;&gt;Node12 -->
<g id="edge11_Node000002_Node000012" class="edge">
<title>Node2&#45;&gt;Node12</title>
<g id="a_edge11_Node000002_Node000012"><a xlink:title=" ">
<path fill="none" stroke="#63b8ff" d="M229.13,-267.42C247.57,-275.11 273.32,-285.79 296,-295 299.54,-296.44 303.19,-297.91 306.87,-299.39"/>
<polygon fill="#63b8ff" stroke="#63b8ff" points="305.25,-302.51 315.84,-302.98 307.85,-296.01 305.25,-302.51"/>
</a>
</g>
</g>
<!-- Node13 -->
<g id="Node000013" class="node">
<title>Node13</title>
<g id="a_Node000013"><a xlink:href="baseline__learner_8c.html#a8364fb5fcdf45cf1c5fa4d085fb289bc" target="_top" xlink:title=" ">
<polygon fill="white" stroke="#666666" points="423,-286 296.75,-286 296.75,-266 423,-266 423,-286"/>
<text xml:space="preserve" text-anchor="middle" x="359.88" y="-272.5" font-family="Helvetica,sans-Serif" font-size="10.00">baseline_learner_observe</text>
</a>
</g>
</g>
<!-- Node2&#45;&gt;Node13 -->
<g id="edge12_Node000002_Node000013" class="edge">
<title>Node2&#45;&gt;Node13</title>
<g id="a_edge12_Node000002_Node000013"><a xlink:title=" ">
<path fill="none" stroke="#63b8ff" d="M238.18,-261.17C252.05,-262.87 268.67,-264.92 285.08,-266.93"/>
<polygon fill="#63b8ff" stroke="#63b8ff" points="284.52,-270.39 294.87,-268.14 285.37,-263.44 284.52,-270.39"/>
</a>
</g>
</g>
<!-- Node14 -->
<g id="Node000014" class="node">
<title>Node14</title>
<g id="a_Node000014"><a xlink:href="led__platform_8c.html#a77fc9f40cca82372c91a16f22f19b66d" target="_top" xlink:title=" ">
<polygon fill="white" stroke="#666666" points="420,-248 299.75,-248 299.75,-228 420,-228 420,-248"/>
<text xml:space="preserve" text-anchor="middle" x="359.88" y="-234.5" font-family="Helvetica,sans-Serif" font-size="10.00">led_platform_set_status</text>
</a>
</g>
</g>
<!-- Node2&#45;&gt;Node14 -->
<g id="edge13_Node000002_Node000014" class="edge">
<title>Node2&#45;&gt;Node14</title>
<g id="a_edge13_Node000002_Node000014"><a xlink:title=" ">
<path fill="none" stroke="#63b8ff" d="M238.18,-252.83C252.91,-251.02 270.75,-248.83 288.14,-246.69"/>
<polygon fill="#63b8ff" stroke="#63b8ff" points="288.47,-250.18 297.97,-245.48 287.61,-243.23 288.47,-250.18"/>
</a>
</g>
</g>
<!-- Node15 -->
<g id="Node000015" class="node">
<title>Node15</title>
<g id="a_Node000015"><a xlink:href="operating__state_8c.html#ab3474265d1cd87b388f4476e06e86b37" target="_top" xlink:title=" ">
<polygon fill="white" stroke="#666666" points="410.25,-210 309.5,-210 309.5,-190 410.25,-190 410.25,-210"/>
<text xml:space="preserve" text-anchor="middle" x="359.88" y="-196.5" font-family="Helvetica,sans-Serif" font-size="10.00">operating_state_init</text>
</a>
</g>
</g>
<!-- Node2&#45;&gt;Node15 -->
<g id="edge14_Node000002_Node000015" class="edge">
<title>Node2&#45;&gt;Node15</title>
<g id="a_edge14_Node000002_Node000015"><a xlink:title=" ">
<path fill="none" stroke="#63b8ff" d="M237.59,-246.59C245.05,-244 252.86,-241.08 260,-238 276.61,-230.84 279.26,-225.87 296,-219 300.33,-217.22 304.89,-215.53 309.49,-213.93"/>
<polygon fill="#63b8ff" stroke="#63b8ff" points="310.38,-217.32 318.79,-210.87 308.2,-210.67 310.38,-217.32"/>
</a>
</g>
</g>
<!-- Node16 -->
<g id="Node000016" class="node">
<title>Node16</title>
<g id="a_Node000016"><a xlink:href="operating__state_8c.html#ac7429baa4f46fad20049447460d40126" target="_top" xlink:title=" ">
<polygon fill="white" stroke="#666666" points="415.88,-172 303.88,-172 303.88,-152 415.88,-152 415.88,-172"/>
<text xml:space="preserve" text-anchor="middle" x="359.88" y="-158.5" font-family="Helvetica,sans-Serif" font-size="10.00">operating_state_name</text>
</a>
</g>
</g>
<!-- Node2&#45;&gt;Node16 -->
<g id="edge15_Node000002_Node000016" class="edge">
<title>Node2&#45;&gt;Node16</title>
<g id="a_edge15_Node000002_Node000016"><a xlink:title=" ">
<path fill="none" stroke="#63b8ff" d="M238.25,-249.49C245.92,-246.73 253.66,-243 260,-238 283.52,-219.44 272.16,-199.14 296,-181 297.56,-179.81 299.19,-178.7 300.88,-177.66"/>
<polygon fill="#63b8ff" stroke="#63b8ff" points="302.44,-180.79 309.73,-173.1 299.24,-174.57 302.44,-180.79"/>
</a>
</g>
</g>
<!-- Node17 -->
<g id="Node000017" class="node">
<title>Node17</title>
<g id="a_Node000017"><a xlink:href="operating__state_8c.html#aeff81feb0cc4a146b790b2c1d5c8df87" target="_top" xlink:title=" ">
<polygon fill="white" stroke="#666666" points="418.5,-134 301.25,-134 301.25,-114 418.5,-114 418.5,-134"/>
<text xml:space="preserve" text-anchor="middle" x="359.88" y="-120.5" font-family="Helvetica,sans-Serif" font-size="10.00">operating_state_update</text>
</a>
</g>
</g>
<!-- Node2&#45;&gt;Node17 -->
<g id="edge16_Node000002_Node000017" class="edge">
<title>Node2&#45;&gt;Node17</title>
<g id="a_edge16_Node000002_Node000017"><a xlink:title=" ">
<path fill="none" stroke="#63b8ff" d="M238.15,-250.68C246.09,-247.87 253.97,-243.83 260,-238 292.46,-206.62 262.99,-173.81 296,-143 296.92,-142.14 297.87,-141.33 298.86,-140.55"/>
<polygon fill="#63b8ff" stroke="#63b8ff" points="300.62,-143.57 307.2,-135.27 296.88,-137.66 300.62,-143.57"/>
</a>
</g>
</g>
<!-- Node18 -->
<g id="Node000018" class="node">
<title>Node18</title>
<g id="a_Node000018"><a xlink:href="telemetry_8c.html#a1180d2515f9027c9b8cc74639ebd102f" target="_top" xlink:title=" ">
<polygon fill="white" stroke="#666666" points="406.12,-96 313.62,-96 313.62,-76 406.12,-76 406.12,-96"/>
<text xml:space="preserve" text-anchor="middle" x="359.88" y="-82.5" font-family="Helvetica,sans-Serif" font-size="10.00">telemetry_publish</text>
</a>
</g>
</g>
<!-- Node2&#45;&gt;Node18 -->
<g id="edge17_Node000002_Node000018" class="edge">
<title>Node2&#45;&gt;Node18</title>
<g id="a_edge17_Node000002_Node000018"><a xlink:title=" ">
<path fill="none" stroke="#63b8ff" d="M238.26,-251.18C246.29,-248.36 254.19,-244.19 260,-238 301.89,-193.33 253.33,-148.93 296,-105 298.16,-102.78 300.57,-100.81 303.15,-99.07"/>
<polygon fill="#63b8ff" stroke="#63b8ff" points="304.63,-102.25 311.79,-94.44 301.32,-96.08 304.63,-102.25"/>
</a>
</g>
</g>
<!-- Node19 -->
<g id="Node000019" class="node">
<title>Node19</title>
<g id="a_Node000019"><a xlink:href="sensor__platform_8c.html#a4a8a3af84725d8effcf8fa8e5a0d8354" target="_top" xlink:title=" ">
<polygon fill="white" stroke="#666666" points="411,-58 308.75,-58 308.75,-38 411,-38 411,-58"/>
<text xml:space="preserve" text-anchor="middle" x="359.88" y="-44.5" font-family="Helvetica,sans-Serif" font-size="10.00">update_temperature</text>
</a>
</g>
</g>
<!-- Node2&#45;&gt;Node19 -->
<g id="edge18_Node000002_Node000019" class="edge">
<title>Node2&#45;&gt;Node19</title>
<g id="a_edge18_Node000002_Node000019"><a xlink:title=" ">
<path fill="none" stroke="#63b8ff" d="M238.22,-251.5C246.34,-248.69 254.3,-244.43 260,-238 311.5,-179.86 243.49,-124.23 296,-67 297,-65.91 298.05,-64.89 299.16,-63.92"/>
<polygon fill="#63b8ff" stroke="#63b8ff" points="300.95,-66.93 307.27,-58.43 297.03,-61.14 300.95,-66.93"/>
</a>
</g>
</g>
<!-- Node21 -->
<g id="Node000021" class="node">
<title>Node21</title>
<g id="a_Node000021"><a xlink:href="sensor__platform_8c.html#af75696a3432e2576530dd8d12ffc8650" target="_top" xlink:title=" ">
<polygon fill="white" stroke="#666666" points="415.5,-20 304.25,-20 304.25,0 415.5,0 415.5,-20"/>
<text xml:space="preserve" text-anchor="middle" x="359.88" y="-6.5" font-family="Helvetica,sans-Serif" font-size="10.00">vibration_source_read</text>
</a>
</g>
</g>
<!-- Node2&#45;&gt;Node21 -->
<g id="edge20_Node000002_Node000021" class="edge">
<title>Node2&#45;&gt;Node21</title>
<g id="a_edge20_Node000002_Node000021"><a xlink:title=" ">
<path fill="none" stroke="#63b8ff" d="M238.09,-251.74C246.32,-248.93 254.36,-244.61 260,-238 321.19,-166.3 233.57,-99.62 296,-29 296.47,-28.47 296.96,-27.95 297.46,-27.44"/>
<polygon fill="#63b8ff" stroke="#63b8ff" points="299.57,-30.24 305.38,-21.38 295.31,-24.68 299.57,-30.24"/>
</a>
</g>
</g>
<!-- Node6 -->
<g id="Node000006" class="node">
<title>Node6</title>
<g id="a_Node000006"><a xlink:href="baseline__learner_8c.html#a16d1857a07b5266725c7f88e424dd00c" target="_top" xlink:title=" ">
<polygon fill="white" stroke="#666666" points="593.12,-500 462.38,-500 462.38,-480 593.12,-480 593.12,-500"/>
<text xml:space="preserve" text-anchor="middle" x="527.75" y="-486.5" font-family="Helvetica,sans-Serif" font-size="10.00">baseline_learner_critical_g</text>
</a>
</g>
</g>
<!-- Node5&#45;&gt;Node6 -->
<g id="edge5_Node000005_Node000006" class="edge">
<title>Node5&#45;&gt;Node6</title>
<g id="a_edge5_Node000005_Node000006"><a xlink:title=" ">
<path fill="none" stroke="#63b8ff" d="M406.64,-462.48C426.22,-466.97 449.29,-472.25 469.94,-476.99"/>
<polygon fill="#63b8ff" stroke="#63b8ff" points="469.13,-480.39 479.66,-479.21 470.69,-473.57 469.13,-480.39"/>
</a>
</g>
</g>
<!-- Node7 -->
<g id="Node000007" class="node">
<title>Node7</title>
<g id="a_Node000007"><a xlink:href="baseline__learner_8c.html#a44ace889293934654b5af37a5ddbec41" target="_top" xlink:title=" ">
<polygon fill="white" stroke="#666666" points="595.75,-462 459.75,-462 459.75,-442 595.75,-442 595.75,-462"/>
<text xml:space="preserve" text-anchor="middle" x="527.75" y="-448.5" font-family="Helvetica,sans-Serif" font-size="10.00">baseline_learner_warning_g</text>
</a>
</g>
</g>
<!-- Node5&#45;&gt;Node7 -->
<g id="edge6_Node000005_Node000007" class="edge">
<title>Node5&#45;&gt;Node7</title>
<g id="a_edge6_Node000005_Node000007"><a xlink:title=" ">
<path fill="none" stroke="#63b8ff" d="M424.06,-452C431.9,-452 439.99,-452 448.03,-452"/>
<polygon fill="#63b8ff" stroke="#63b8ff" points="447.81,-455.5 457.81,-452 447.81,-448.5 447.81,-455.5"/>
</a>
</g>
</g>
<!-- Node9 -->
<g id="Node000009" class="node">
<title>Node9</title>
<g id="a_Node000009"><a xlink:href="baseline__learner_8c.html#ad577f8eeceafcc0b106bfa6e0320cf29" target="_top" xlink:title=" ">
<polygon fill="white" stroke="#666666" points="582.62,-424 472.88,-424 472.88,-404 582.62,-404 582.62,-424"/>
<text xml:space="preserve" text-anchor="middle" x="527.75" y="-410.5" font-family="Helvetica,sans-Serif" font-size="10.00">baseline_learner_load</text>
</a>
</g>
</g>
<!-- Node8&#45;&gt;Node9 -->
<g id="edge8_Node000008_Node000009" class="edge">
<title>Node8&#45;&gt;Node9</title>
<g id="a_edge8_Node000008_Node000009"><a xlink:title=" ">
<path fill="none" stroke="#63b8ff" d="M412.45,-414C427.98,-414 445.23,-414 461.53,-414"/>
<polygon fill="#63b8ff" stroke="#63b8ff" points="461.11,-417.5 471.11,-414 461.11,-410.5 461.11,-417.5"/>
</a>
</g>
</g>
<!-- Node10 -->
<g id="Node000010" class="node">
<title>Node10</title>
<g id="a_Node000010"><a xlink:href="baseline__learner_8c.html#a146909defd8c628fbf538bb73a7ded3c" target="_top" xlink:title=" ">
<polygon fill="white" stroke="#666666" points="692.75,-424 631.75,-424 631.75,-404 692.75,-404 692.75,-424"/>
<text xml:space="preserve" text-anchor="middle" x="662.25" y="-410.5" font-family="Helvetica,sans-Serif" font-size="10.00">checksum</text>
</a>
</g>
</g>
<!-- Node9&#45;&gt;Node10 -->
<g id="edge9_Node000009_Node000010" class="edge">
<title>Node9&#45;&gt;Node10</title>
<g id="a_edge9_Node000009_Node000010"><a xlink:title=" ">
<path fill="none" stroke="#63b8ff" d="M583.03,-414C595.46,-414 608.48,-414 620.25,-414"/>
<polygon fill="#63b8ff" stroke="#63b8ff" points="620.02,-417.5 630.02,-414 620.02,-410.5 620.02,-417.5"/>
</a>
</g>
</g>
<!-- Node20 -->
<g id="Node000020" class="node">
<title>Node20</title>
<g id="a_Node000020"><a xlink:href="sensor__platform_8c.html#a3274ab267dfbba3d579f0b558d690f36" target="_top" xlink:title=" ">
<polygon fill="white" stroke="#666666" points="563.88,-39 491.62,-39 491.62,-19 563.88,-19 563.88,-39"/>
<text xml:space="preserve" text-anchor="middle" x="527.75" y="-25.5" font-family="Helvetica,sans-Serif" font-size="10.00">read_register</text>
</a>
</g>
</g>
<!-- Node19&#45;&gt;Node20 -->
<g id="edge19_Node000019_Node000020" class="edge">
<title>Node19&#45;&gt;Node20</title>
<g id="a_edge19_Node000019_Node000020"><a xlink:title=" ">
<path fill="none" stroke="#63b8ff" d="M411.09,-42.25C433,-39.74 458.53,-36.81 480.02,-34.35"/>
<polygon fill="#63b8ff" stroke="#63b8ff" points="480.13,-37.86 489.67,-33.25 479.34,-30.91 480.13,-37.86"/>
</a>
</g>
</g>
<!-- Node21&#45;&gt;Node20 -->
<g id="edge21_Node000021_Node000020" class="edge">
<title>Node21&#45;&gt;Node20</title>
<g id="a_edge21_Node000021_Node000020"><a xlink:title=" ">
<path fill="none" stroke="#63b8ff" d="M415.65,-16.27C436.47,-18.66 459.99,-21.35 480,-23.65"/>
<polygon fill="#63b8ff" stroke="#63b8ff" points="479.5,-27.11 489.83,-24.77 480.3,-20.16 479.5,-27.11"/>
</a>
</g>
</g>
</g>
</svg>
