<?xml version="1.0" encoding="UTF-8" standalone="no"?>
<!DOCTYPE svg PUBLIC "-//W3C//DTD SVG 1.1//EN"
 "http://www.w3.org/Graphics/SVG/1.1/DTD/svg11.dtd">
<!-- Generated by graphviz version 15.1.1 (20260805.0921)
 -->
<!-- Title: sensor_platform_init Pages: 1 -->
<svg width="382pt" height="161pt"
 viewBox="0.00 0.00 382.00 161.00" xmlns="http://www.w3.org/2000/svg" xmlns:xlink="http://www.w3.org/1999/xlink">

<svg id="main" version="1.1" xmlns="http://www.w3.org/2000/svg" xmlns:xlink="http://www.w3.org/1999/xlink" xml:space="preserve">

<style type="text/css"><![CDATA[
.node, .edge {opacity: 0.7;}
.node.selected, .edge.selected {opacity: 1;}
.edge:hover path { stroke: red; }
.edge:hover polygon { stroke: red; fill: red; }
]]></style>
<script type="application/ecmascript" xlink:href="svg.min.js"/>
<svg id="graph" class="graph">
<g id="graph0" class="graph" transform="scale(1 1) rotate(0) translate(4 157)">
<title>sensor_platform_init</title>
<!-- Node1 -->
<g id="Node000001" class="node">
<title>Node1</title>
<g id="a_Node000001"><a xlink:title=" ">
<polygon fill="#999999" stroke="#666666" points="103.75,-77 0,-77 0,-57 103.75,-57 103.75,-77"/>
<text xml:space="preserve" text-anchor="middle" x="51.88" y="-63.5" font-family="Helvetica,sans-Serif" font-size="10.00">sensor_platform_init</text>
</a>
</g>
</g>
<!-- Node2 -->
<g id="Node000002" class="node">
<title>Node2</title>
<g id="a_Node000002"><a xlink:href="sensor__platform_8c.html#a2670b1257cae0f44d5fbdd2237ab4602" target="_top" xlink:title=" ">
<polygon fill="white" stroke="#666666" points="240.5,-134 163,-134 163,-114 240.5,-114 240.5,-134"/>
<text xml:space="preserve" text-anchor="middle" x="201.75" y="-120.5" font-family="Helvetica,sans-Serif" font-size="10.00">detect_motion</text>
</a>
</g>
</g>
<!-- Node1&#45;&gt;Node2 -->
<g id="edge1_Node000001_Node000002" class="edge">
<title>Node1&#45;&gt;Node2</title>
<g id="a_edge1_Node000001_Node000002"><a xlink:title=" ">
<path fill="none" stroke="#63b8ff" d="M74.74,-77.36C92.14,-85.42 117.23,-96.6 139.75,-105 144.38,-106.73 149.24,-108.43 154.11,-110.06"/>
<polygon fill="#63b8ff" stroke="#63b8ff" points="152.69,-113.28 163.28,-113.03 154.85,-106.62 152.69,-113.28"/>
</a>
</g>
</g>
<!-- Node6 -->
<g id="Node000006" class="node">
<title>Node6</title>
<g id="a_Node000006"><a xlink:href="sensor__platform_8c.html#a43f98340c43e43546d62c87e9d7ce475" target="_top" xlink:title=" ">
<polygon fill="white" stroke="#666666" points="244.62,-96 158.88,-96 158.88,-76 244.62,-76 244.62,-96"/>
<text xml:space="preserve" text-anchor="middle" x="201.75" y="-82.5" font-family="Helvetica,sans-Serif" font-size="10.00">detect_pressure</text>
</a>
</g>
</g>
<!-- Node1&#45;&gt;Node6 -->
<g id="edge5_Node000001_Node000006" class="edge">
<title>Node1&#45;&gt;Node6</title>
<g id="a_edge5_Node000001_Node000006"><a xlink:title=" ">
<path fill="none" stroke="#63b8ff" d="M104.18,-73.59C118.27,-75.4 133.56,-77.37 147.74,-79.19"/>
<polygon fill="#63b8ff" stroke="#63b8ff" points="146.96,-82.62 157.33,-80.42 147.86,-75.68 146.96,-82.62"/>
</a>
</g>
</g>
<!-- Node7 -->
<g id="Node000007" class="node">
<title>Node7</title>
<g id="a_Node000007"><a xlink:href="sensor__platform_8c.html#a52fa6ce164e93eec2e77f4d3a4f9a77a" target="_top" xlink:title=" ">
<polygon fill="white" stroke="#666666" points="232.25,-20 171.25,-20 171.25,0 232.25,0 232.25,-20"/>
<text xml:space="preserve" text-anchor="middle" x="201.75" y="-6.5" font-family="Helvetica,sans-Serif" font-size="10.00">print_scan</text>
</a>
</g>
</g>
<!-- Node1&#45;&gt;Node7 -->
<g id="edge8_Node000001_Node000007" class="edge">
<title>Node1&#45;&gt;Node7</title>
<g id="a_edge8_Node000001_Node000007"><a xlink:title=" ">
<path fill="none" stroke="#63b8ff" d="M74.74,-56.64C92.14,-48.58 117.23,-37.4 139.75,-29 146.37,-26.53 153.46,-24.12 160.39,-21.88"/>
<polygon fill="#63b8ff" stroke="#63b8ff" points="161.12,-25.32 169.61,-18.98 159.02,-18.64 161.12,-25.32"/>
</a>
</g>
</g>
<!-- Node8 -->
<g id="Node000008" class="node">
<title>Node8</title>
<g id="a_Node000008"><a xlink:href="sensor__platform_8c.html#a8876077b1499efe9378ab7fd260535a5" target="_top" xlink:title=" ">
<polygon fill="white" stroke="#666666" points="263.75,-58 139.75,-58 139.75,-38 263.75,-38 263.75,-58"/>
<text xml:space="preserve" text-anchor="middle" x="201.75" y="-44.5" font-family="Helvetica,sans-Serif" font-size="10.00">read_bmp180_calibration</text>
</a>
</g>
</g>
<!-- Node1&#45;&gt;Node8 -->
<g id="edge9_Node000001_Node000008" class="edge">
<title>Node1&#45;&gt;Node8</title>
<g id="a_edge9_Node000001_Node000008"><a xlink:title=" ">
<path fill="none" stroke="#63b8ff" d="M104.18,-60.41C111.89,-59.42 119.96,-58.38 128.02,-57.34"/>
<polygon fill="#63b8ff" stroke="#63b8ff" points="128.38,-60.83 137.85,-56.08 127.49,-53.88 128.38,-60.83"/>
</a>
</g>
</g>
<!-- Node3 -->
<g id="Node000003" class="node">
<title>Node3</title>
<g id="a_Node000003"><a xlink:href="sensor__platform_8c.html#a7e7e1e0d0be63323bfa8e83ced617345" target="_top" xlink:title=" ">
<polygon fill="white" stroke="#666666" points="369.75,-115 304.25,-115 304.25,-95 369.75,-95 369.75,-115"/>
<text xml:space="preserve" text-anchor="middle" x="337" y="-101.5" font-family="Helvetica,sans-Serif" font-size="10.00">add_device</text>
</a>
</g>
</g>
<!-- Node2&#45;&gt;Node3 -->
<g id="edge2_Node000002_Node000003" class="edge">
<title>Node2&#45;&gt;Node3</title>
<g id="a_edge2_Node000002_Node000003"><a xlink:title=" ">
<path fill="none" stroke="#63b8ff" d="M240.93,-118.56C257.18,-116.24 276.2,-113.53 292.95,-111.14"/>
<polygon fill="#63b8ff" stroke="#63b8ff" points="293.21,-114.64 302.61,-109.76 292.22,-107.71 293.21,-114.64"/>
</a>
</g>
</g>
<!-- Node4 -->
<g id="Node000004" class="node">
<title>Node4</title>
<g id="a_Node000004"><a xlink:href="sensor__platform_8c.html#a3274ab267dfbba3d579f0b558d690f36" target="_top" xlink:title=" ">
<polygon fill="white" stroke="#666666" points="373.12,-77 300.88,-77 300.88,-57 373.12,-57 373.12,-77"/>
<text xml:space="preserve" text-anchor="middle" x="337" y="-63.5" font-family="Helvetica,sans-Serif" font-size="10.00">read_register</text>
</a>
</g>
</g>
<!-- Node2&#45;&gt;Node4 -->
<g id="edge3_Node000002_Node000004" class="edge">
<title>Node2&#45;&gt;Node4</title>
<g id="a_edge3_Node000002_Node000004"><a xlink:title=" ">
<path fill="none" stroke="#63b8ff" d="M240.24,-113.52C248.1,-110.99 256.27,-108.11 263.75,-105 280.46,-98.06 283.74,-94.42 299.75,-86 301.81,-84.91 303.94,-83.8 306.09,-82.67"/>
<polygon fill="#63b8ff" stroke="#63b8ff" points="307.48,-85.89 314.71,-78.15 304.23,-79.69 307.48,-85.89"/>
</a>
</g>
</g>
<!-- Node5 -->
<g id="Node000005" class="node">
<title>Node5</title>
<g id="a_Node000005"><a xlink:href="sensor__platform_8c.html#a9ab638421cbe10ce3fceb5acefe6ee10" target="_top" xlink:title=" ">
<polygon fill="white" stroke="#666666" points="374.25,-153 299.75,-153 299.75,-133 374.25,-133 374.25,-153"/>
<text xml:space="preserve" text-anchor="middle" x="337" y="-139.5" font-family="Helvetica,sans-Serif" font-size="10.00">write_register</text>
</a>
</g>
</g>
<!-- Node2&#45;&gt;Node5 -->
<g id="edge4_Node000002_Node000005" class="edge">
<title>Node2&#45;&gt;Node5</title>
<g id="a_edge4_Node000002_Node000005"><a xlink:title=" ">
<path fill="none" stroke="#63b8ff" d="M240.93,-129.44C255.79,-131.56 272.96,-134.01 288.59,-136.24"/>
<polygon fill="#63b8ff" stroke="#63b8ff" points="287.75,-139.66 298.15,-137.6 288.74,-132.73 287.75,-139.66"/>
</a>
</g>
</g>
<!-- Node6&#45;&gt;Node3 -->
<g id="edge6_Node000006_Node000003" class="edge">
<title>Node6&#45;&gt;Node3</title>
<g id="a_edge6_Node000006_Node000003"><a xlink:title=" ">
<path fill="none" stroke="#63b8ff" d="M244.91,-92.01C260.1,-94.18 277.26,-96.62 292.56,-98.81"/>
<polygon fill="#63b8ff" stroke="#63b8ff" points="291.94,-102.25 302.33,-100.2 292.92,-95.32 291.94,-102.25"/>
</a>
</g>
</g>
<!-- Node6&#45;&gt;Node4 -->
<g id="edge7_Node000006_Node000004" class="edge">
<title>Node6&#45;&gt;Node4</title>
<g id="a_edge7_Node000006_Node000004"><a xlink:title=" ">
<path fill="none" stroke="#63b8ff" d="M244.91,-79.99C258.99,-77.98 274.76,-75.73 289.17,-73.68"/>
<polygon fill="#63b8ff" stroke="#63b8ff" points="289.47,-77.17 298.88,-72.29 288.49,-70.24 289.47,-77.17"/>
</a>
</g>
</g>
<!-- Node8&#45;&gt;Node4 -->
<g id="edge10_Node000008_Node000004" class="edge">
<title>Node8&#45;&gt;Node4</title>
<g id="a_edge10_Node000008_Node000004"><a xlink:title=" ">
<path fill="none" stroke="#63b8ff" d="M263.92,-56.72C272.47,-57.94 281.15,-59.18 289.38,-60.35"/>
<polygon fill="#63b8ff" stroke="#63b8ff" points="288.76,-63.8 299.15,-61.75 289.75,-56.87 288.76,-63.8"/>
</a>
</g>
</g>
</g>
</svg>
</svg>

<style type='text/css'>
<![CDATA[
[data-mouse-over-selected='false'] { opacity: 0.7; }
[data-mouse-over-selected='true']  { opacity: 1.0; }
]]>
</style>
<script type="application/ecmascript"><![CDATA[
document.addEventListener('DOMContentLoaded', (event) => {
  highlightEdges();
  highlightAdjacentNodes();
});
]]></script>
</svg>
